M48
;DRILL file {KiCad 4.0.7} date 04/15/18 07:55:58
;FORMAT={-:-/ absolute / inch / decimal}
FMAT,2
INCH,TZ
T1C0.016
T2C0.031
%
G90
G05
M72
T1
X5.915Y-4.9175
X5.9325Y-4.885
X6.0425Y-4.8225
X6.0475Y-5.005
X6.055Y-4.4625
X6.055Y-4.75
X6.0825Y-4.6725
X6.3275Y-5.06
X6.41Y-4.5825
T2
X5.8465Y-4.134
X5.8465Y-4.234
X5.8465Y-4.334
X5.8465Y-4.434
X5.8465Y-4.534
X5.8465Y-4.634
X5.8465Y-4.734
X5.8465Y-4.834
X5.8465Y-4.934
X5.8465Y-5.034
X5.8465Y-5.134
X5.8465Y-5.234
X5.8465Y-5.334
X5.8465Y-5.434
X6.4465Y-4.134
X6.4465Y-4.234
X6.4465Y-4.334
X6.4465Y-4.434
X6.4465Y-4.534
X6.4465Y-4.634
X6.4465Y-4.734
X6.4465Y-4.834
X6.4465Y-4.934
X6.4465Y-5.034
X6.4465Y-5.134
X6.4465Y-5.234
X6.4465Y-5.334
X6.4465Y-5.434
T0
M30
