G04 #@! TF.FileFunction,Copper,L2,Bot,Signal*
%FSLAX46Y46*%
G04 Gerber Fmt 4.6, Leading zero omitted, Abs format (unit mm)*
G04 Created by KiCad (PCBNEW 4.0.7) date 04/15/18 07:55:40*
%MOMM*%
%LPD*%
G01*
G04 APERTURE LIST*
%ADD10C,0.100000*%
%ADD11R,1.600000X1.600000*%
%ADD12O,1.600000X1.600000*%
%ADD13C,0.600000*%
%ADD14C,0.500000*%
%ADD15C,0.250000*%
%ADD16C,0.025400*%
G04 APERTURE END LIST*
D10*
D11*
X148501100Y-105003600D03*
D12*
X163741100Y-138023600D03*
X148501100Y-107543600D03*
X163741100Y-135483600D03*
X148501100Y-110083600D03*
X163741100Y-132943600D03*
X148501100Y-112623600D03*
X163741100Y-130403600D03*
X148501100Y-115163600D03*
X163741100Y-127863600D03*
X148501100Y-117703600D03*
X163741100Y-125323600D03*
X148501100Y-120243600D03*
X163741100Y-122783600D03*
X148501100Y-122783600D03*
X163741100Y-120243600D03*
X148501100Y-125323600D03*
X163741100Y-117703600D03*
X148501100Y-127863600D03*
X163741100Y-115163600D03*
X148501100Y-130403600D03*
X163741100Y-112623600D03*
X148501100Y-132943600D03*
X163741100Y-110083600D03*
X148501100Y-135483600D03*
X163741100Y-107543600D03*
X148501100Y-138023600D03*
X163741100Y-105003600D03*
D13*
X160718500Y-128524000D03*
X162814000Y-116395500D03*
X150685500Y-124079000D03*
X150241000Y-124904500D03*
X153479500Y-122491500D03*
X153606500Y-127127000D03*
X154495500Y-118681500D03*
X153797000Y-120650000D03*
X153797000Y-113347500D03*
D14*
X160718500Y-118554500D02*
X160718500Y-128524000D01*
X162814000Y-116459000D02*
X160718500Y-118554500D01*
X162814000Y-116395500D02*
X162814000Y-116459000D01*
D15*
X148501100Y-117703600D02*
X150685500Y-119888000D01*
X150685500Y-119888000D02*
X150685500Y-124079000D01*
X150241000Y-124904500D02*
X149626101Y-124289601D01*
X149626101Y-124289601D02*
X149626101Y-121368601D01*
X149626101Y-121368601D02*
X148501100Y-120243600D01*
X153606500Y-127127000D02*
X153606500Y-122618500D01*
X153606500Y-122618500D02*
X153479500Y-122491500D01*
X148501100Y-127469900D02*
X148501100Y-127863600D01*
X154495500Y-127381000D02*
X151472900Y-130403600D01*
X151472900Y-130403600D02*
X148501100Y-130403600D01*
X154495500Y-118681500D02*
X154495500Y-127381000D01*
X153797000Y-113347500D02*
X153797000Y-114109500D01*
X153797000Y-114109500D02*
X153797000Y-120650000D01*
D16*
G36*
X164960300Y-103771655D02*
X164960300Y-139242800D01*
X147205677Y-139242800D01*
X147203500Y-138023600D01*
X147413502Y-138023600D01*
X147494700Y-138431808D01*
X147725931Y-138777871D01*
X148071994Y-139009102D01*
X148480202Y-139090300D01*
X148521998Y-139090300D01*
X148930206Y-139009102D01*
X149276269Y-138777871D01*
X149507500Y-138431808D01*
X149588698Y-138023600D01*
X162653502Y-138023600D01*
X162734700Y-138431808D01*
X162965931Y-138777871D01*
X163311994Y-139009102D01*
X163720202Y-139090300D01*
X163761998Y-139090300D01*
X164170206Y-139009102D01*
X164516269Y-138777871D01*
X164747500Y-138431808D01*
X164828698Y-138023600D01*
X164747500Y-137615392D01*
X164516269Y-137269329D01*
X164170206Y-137038098D01*
X163761998Y-136956900D01*
X163720202Y-136956900D01*
X163311994Y-137038098D01*
X162965931Y-137269329D01*
X162734700Y-137615392D01*
X162653502Y-138023600D01*
X149588698Y-138023600D01*
X149507500Y-137615392D01*
X149276269Y-137269329D01*
X148930206Y-137038098D01*
X148521998Y-136956900D01*
X148480202Y-136956900D01*
X148071994Y-137038098D01*
X147725931Y-137269329D01*
X147494700Y-137615392D01*
X147413502Y-138023600D01*
X147203500Y-138023600D01*
X147199395Y-135724902D01*
X147335284Y-135724902D01*
X147256365Y-135925054D01*
X147308766Y-136051617D01*
X147616898Y-136464666D01*
X148059642Y-136728356D01*
X148259800Y-136651915D01*
X148259800Y-135724900D01*
X148742400Y-135724900D01*
X148742400Y-136651915D01*
X148942558Y-136728356D01*
X149385302Y-136464666D01*
X149693434Y-136051617D01*
X149745835Y-135925054D01*
X149666915Y-135724900D01*
X148742400Y-135724900D01*
X148259800Y-135724900D01*
X148239800Y-135724900D01*
X148239800Y-135483600D01*
X162653502Y-135483600D01*
X162734700Y-135891808D01*
X162965931Y-136237871D01*
X163311994Y-136469102D01*
X163720202Y-136550300D01*
X163761998Y-136550300D01*
X164170206Y-136469102D01*
X164516269Y-136237871D01*
X164747500Y-135891808D01*
X164828698Y-135483600D01*
X164747500Y-135075392D01*
X164516269Y-134729329D01*
X164170206Y-134498098D01*
X163761998Y-134416900D01*
X163720202Y-134416900D01*
X163311994Y-134498098D01*
X162965931Y-134729329D01*
X162734700Y-135075392D01*
X162653502Y-135483600D01*
X148239800Y-135483600D01*
X148239800Y-135242300D01*
X148259800Y-135242300D01*
X148259800Y-134315285D01*
X148742400Y-134315285D01*
X148742400Y-135242300D01*
X149666915Y-135242300D01*
X149745835Y-135042146D01*
X149693434Y-134915583D01*
X149385302Y-134502534D01*
X148942558Y-134238844D01*
X148742400Y-134315285D01*
X148259800Y-134315285D01*
X148059642Y-134238844D01*
X147616898Y-134502534D01*
X147308766Y-134915583D01*
X147256365Y-135042146D01*
X147335284Y-135242298D01*
X147198533Y-135242298D01*
X147194429Y-132943600D01*
X147413502Y-132943600D01*
X147494700Y-133351808D01*
X147725931Y-133697871D01*
X148071994Y-133929102D01*
X148480202Y-134010300D01*
X148521998Y-134010300D01*
X148930206Y-133929102D01*
X149276269Y-133697871D01*
X149507500Y-133351808D01*
X149588698Y-132943600D01*
X162653502Y-132943600D01*
X162734700Y-133351808D01*
X162965931Y-133697871D01*
X163311994Y-133929102D01*
X163720202Y-134010300D01*
X163761998Y-134010300D01*
X164170206Y-133929102D01*
X164516269Y-133697871D01*
X164747500Y-133351808D01*
X164828698Y-132943600D01*
X164747500Y-132535392D01*
X164516269Y-132189329D01*
X164170206Y-131958098D01*
X163761998Y-131876900D01*
X163720202Y-131876900D01*
X163311994Y-131958098D01*
X162965931Y-132189329D01*
X162734700Y-132535392D01*
X162653502Y-132943600D01*
X149588698Y-132943600D01*
X149507500Y-132535392D01*
X149276269Y-132189329D01*
X148930206Y-131958098D01*
X148521998Y-131876900D01*
X148480202Y-131876900D01*
X148071994Y-131958098D01*
X147725931Y-132189329D01*
X147494700Y-132535392D01*
X147413502Y-132943600D01*
X147194429Y-132943600D01*
X147189894Y-130403600D01*
X147413502Y-130403600D01*
X147494700Y-130811808D01*
X147725931Y-131157871D01*
X148071994Y-131389102D01*
X148480202Y-131470300D01*
X148521998Y-131470300D01*
X148930206Y-131389102D01*
X149276269Y-131157871D01*
X149507500Y-130811808D01*
X149510784Y-130795300D01*
X151472900Y-130795300D01*
X151622797Y-130765484D01*
X151749874Y-130680574D01*
X152026848Y-130403600D01*
X162653502Y-130403600D01*
X162734700Y-130811808D01*
X162965931Y-131157871D01*
X163311994Y-131389102D01*
X163720202Y-131470300D01*
X163761998Y-131470300D01*
X164170206Y-131389102D01*
X164516269Y-131157871D01*
X164747500Y-130811808D01*
X164828698Y-130403600D01*
X164747500Y-129995392D01*
X164516269Y-129649329D01*
X164170206Y-129418098D01*
X163761998Y-129336900D01*
X163720202Y-129336900D01*
X163311994Y-129418098D01*
X162965931Y-129649329D01*
X162734700Y-129995392D01*
X162653502Y-130403600D01*
X152026848Y-130403600D01*
X153794219Y-128636229D01*
X160151702Y-128636229D01*
X160237795Y-128844590D01*
X160397071Y-129004144D01*
X160605282Y-129090601D01*
X160830729Y-129090798D01*
X161039090Y-129004705D01*
X161198644Y-128845429D01*
X161285101Y-128637218D01*
X161285298Y-128411771D01*
X161235200Y-128290525D01*
X161235200Y-127863600D01*
X162653502Y-127863600D01*
X162734700Y-128271808D01*
X162965931Y-128617871D01*
X163311994Y-128849102D01*
X163720202Y-128930300D01*
X163761998Y-128930300D01*
X164170206Y-128849102D01*
X164516269Y-128617871D01*
X164747500Y-128271808D01*
X164828698Y-127863600D01*
X164747500Y-127455392D01*
X164516269Y-127109329D01*
X164170206Y-126878098D01*
X163761998Y-126796900D01*
X163720202Y-126796900D01*
X163311994Y-126878098D01*
X162965931Y-127109329D01*
X162734700Y-127455392D01*
X162653502Y-127863600D01*
X161235200Y-127863600D01*
X161235200Y-125323600D01*
X162653502Y-125323600D01*
X162734700Y-125731808D01*
X162965931Y-126077871D01*
X163311994Y-126309102D01*
X163720202Y-126390300D01*
X163761998Y-126390300D01*
X164170206Y-126309102D01*
X164516269Y-126077871D01*
X164747500Y-125731808D01*
X164828698Y-125323600D01*
X164747500Y-124915392D01*
X164516269Y-124569329D01*
X164170206Y-124338098D01*
X163761998Y-124256900D01*
X163720202Y-124256900D01*
X163311994Y-124338098D01*
X162965931Y-124569329D01*
X162734700Y-124915392D01*
X162653502Y-125323600D01*
X161235200Y-125323600D01*
X161235200Y-122783600D01*
X162653502Y-122783600D01*
X162734700Y-123191808D01*
X162965931Y-123537871D01*
X163311994Y-123769102D01*
X163720202Y-123850300D01*
X163761998Y-123850300D01*
X164170206Y-123769102D01*
X164516269Y-123537871D01*
X164747500Y-123191808D01*
X164828698Y-122783600D01*
X164747500Y-122375392D01*
X164516269Y-122029329D01*
X164170206Y-121798098D01*
X163761998Y-121716900D01*
X163720202Y-121716900D01*
X163311994Y-121798098D01*
X162965931Y-122029329D01*
X162734700Y-122375392D01*
X162653502Y-122783600D01*
X161235200Y-122783600D01*
X161235200Y-120243600D01*
X162653502Y-120243600D01*
X162734700Y-120651808D01*
X162965931Y-120997871D01*
X163311994Y-121229102D01*
X163720202Y-121310300D01*
X163761998Y-121310300D01*
X164170206Y-121229102D01*
X164516269Y-120997871D01*
X164747500Y-120651808D01*
X164828698Y-120243600D01*
X164747500Y-119835392D01*
X164516269Y-119489329D01*
X164170206Y-119258098D01*
X163761998Y-119176900D01*
X163720202Y-119176900D01*
X163311994Y-119258098D01*
X162965931Y-119489329D01*
X162734700Y-119835392D01*
X162653502Y-120243600D01*
X161235200Y-120243600D01*
X161235200Y-118768524D01*
X162787796Y-117215928D01*
X162734700Y-117295392D01*
X162653502Y-117703600D01*
X162734700Y-118111808D01*
X162965931Y-118457871D01*
X163311994Y-118689102D01*
X163720202Y-118770300D01*
X163761998Y-118770300D01*
X164170206Y-118689102D01*
X164516269Y-118457871D01*
X164747500Y-118111808D01*
X164828698Y-117703600D01*
X164747500Y-117295392D01*
X164516269Y-116949329D01*
X164170206Y-116718098D01*
X163761998Y-116636900D01*
X163720202Y-116636900D01*
X163311994Y-116718098D01*
X163254469Y-116756535D01*
X163294144Y-116716929D01*
X163380601Y-116508718D01*
X163380798Y-116283271D01*
X163326557Y-116151999D01*
X163720202Y-116230300D01*
X163761998Y-116230300D01*
X164170206Y-116149102D01*
X164516269Y-115917871D01*
X164747500Y-115571808D01*
X164828698Y-115163600D01*
X164747500Y-114755392D01*
X164516269Y-114409329D01*
X164170206Y-114178098D01*
X163761998Y-114096900D01*
X163720202Y-114096900D01*
X163311994Y-114178098D01*
X162965931Y-114409329D01*
X162734700Y-114755392D01*
X162653502Y-115163600D01*
X162734700Y-115571808D01*
X162906470Y-115828881D01*
X162701771Y-115828702D01*
X162493410Y-115914795D01*
X162333856Y-116074071D01*
X162247399Y-116282282D01*
X162247388Y-116294888D01*
X160353138Y-118189138D01*
X160241131Y-118356767D01*
X160201800Y-118554500D01*
X160201800Y-128290607D01*
X160151899Y-128410782D01*
X160151702Y-128636229D01*
X153794219Y-128636229D01*
X154772474Y-127657974D01*
X154857384Y-127530897D01*
X154887200Y-127381000D01*
X154887200Y-119091219D01*
X154975644Y-119002929D01*
X155062101Y-118794718D01*
X155062298Y-118569271D01*
X154976205Y-118360910D01*
X154816929Y-118201356D01*
X154608718Y-118114899D01*
X154383271Y-118114702D01*
X154188700Y-118195097D01*
X154188700Y-113757219D01*
X154277144Y-113668929D01*
X154363601Y-113460718D01*
X154363798Y-113235271D01*
X154277705Y-113026910D01*
X154118429Y-112867356D01*
X153910218Y-112780899D01*
X153684771Y-112780702D01*
X153476410Y-112866795D01*
X153316856Y-113026071D01*
X153230399Y-113234282D01*
X153230202Y-113459729D01*
X153316295Y-113668090D01*
X153405300Y-113757250D01*
X153405300Y-120240281D01*
X153316856Y-120328571D01*
X153230399Y-120536782D01*
X153230202Y-120762229D01*
X153316295Y-120970590D01*
X153475571Y-121130144D01*
X153683782Y-121216601D01*
X153909229Y-121216798D01*
X154103800Y-121136403D01*
X154103800Y-126846573D01*
X154087205Y-126806410D01*
X153998200Y-126717250D01*
X153998200Y-122720076D01*
X154046101Y-122604718D01*
X154046298Y-122379271D01*
X153960205Y-122170910D01*
X153800929Y-122011356D01*
X153592718Y-121924899D01*
X153367271Y-121924702D01*
X153158910Y-122010795D01*
X152999356Y-122170071D01*
X152912899Y-122378282D01*
X152912702Y-122603729D01*
X152998795Y-122812090D01*
X153158071Y-122971644D01*
X153214800Y-122995200D01*
X153214800Y-126717281D01*
X153126356Y-126805571D01*
X153039899Y-127013782D01*
X153039702Y-127239229D01*
X153125795Y-127447590D01*
X153285071Y-127607144D01*
X153493282Y-127693601D01*
X153628833Y-127693719D01*
X151310652Y-130011900D01*
X149510784Y-130011900D01*
X149507500Y-129995392D01*
X149276269Y-129649329D01*
X148930206Y-129418098D01*
X148521998Y-129336900D01*
X148480202Y-129336900D01*
X148071994Y-129418098D01*
X147725931Y-129649329D01*
X147494700Y-129995392D01*
X147413502Y-130403600D01*
X147189894Y-130403600D01*
X147185359Y-127863600D01*
X147413502Y-127863600D01*
X147494700Y-128271808D01*
X147725931Y-128617871D01*
X148071994Y-128849102D01*
X148480202Y-128930300D01*
X148521998Y-128930300D01*
X148930206Y-128849102D01*
X149276269Y-128617871D01*
X149507500Y-128271808D01*
X149588698Y-127863600D01*
X149507500Y-127455392D01*
X149276269Y-127109329D01*
X148930206Y-126878098D01*
X148521998Y-126796900D01*
X148480202Y-126796900D01*
X148071994Y-126878098D01*
X147725931Y-127109329D01*
X147494700Y-127455392D01*
X147413502Y-127863600D01*
X147185359Y-127863600D01*
X147180824Y-125323600D01*
X147413502Y-125323600D01*
X147494700Y-125731808D01*
X147725931Y-126077871D01*
X148071994Y-126309102D01*
X148480202Y-126390300D01*
X148521998Y-126390300D01*
X148930206Y-126309102D01*
X149276269Y-126077871D01*
X149507500Y-125731808D01*
X149588698Y-125323600D01*
X149507500Y-124915392D01*
X149276269Y-124569329D01*
X148930206Y-124338098D01*
X148521998Y-124256900D01*
X148480202Y-124256900D01*
X148071994Y-124338098D01*
X147725931Y-124569329D01*
X147494700Y-124915392D01*
X147413502Y-125323600D01*
X147180824Y-125323600D01*
X147167217Y-117703600D01*
X147413502Y-117703600D01*
X147494700Y-118111808D01*
X147725931Y-118457871D01*
X148071994Y-118689102D01*
X148480202Y-118770300D01*
X148521998Y-118770300D01*
X148930206Y-118689102D01*
X148931673Y-118688121D01*
X150293800Y-120050248D01*
X150293800Y-123669281D01*
X150205356Y-123757571D01*
X150118899Y-123965782D01*
X150118702Y-124191229D01*
X150144773Y-124254325D01*
X150017801Y-124127353D01*
X150017801Y-121368606D01*
X150017802Y-121368601D01*
X149987985Y-121218704D01*
X149928811Y-121130144D01*
X149903075Y-121091627D01*
X149903072Y-121091625D01*
X149489778Y-120678331D01*
X149507500Y-120651808D01*
X149588698Y-120243600D01*
X149507500Y-119835392D01*
X149276269Y-119489329D01*
X148930206Y-119258098D01*
X148521998Y-119176900D01*
X148480202Y-119176900D01*
X148071994Y-119258098D01*
X147725931Y-119489329D01*
X147494700Y-119835392D01*
X147413502Y-120243600D01*
X147494700Y-120651808D01*
X147725931Y-120997871D01*
X148071994Y-121229102D01*
X148480202Y-121310300D01*
X148521998Y-121310300D01*
X148930206Y-121229102D01*
X148931674Y-121228121D01*
X149234401Y-121530848D01*
X149234401Y-122001354D01*
X148930206Y-121798098D01*
X148521998Y-121716900D01*
X148480202Y-121716900D01*
X148071994Y-121798098D01*
X147725931Y-122029329D01*
X147494700Y-122375392D01*
X147413502Y-122783600D01*
X147494700Y-123191808D01*
X147725931Y-123537871D01*
X148071994Y-123769102D01*
X148480202Y-123850300D01*
X148521998Y-123850300D01*
X148930206Y-123769102D01*
X149234401Y-123565846D01*
X149234401Y-124289601D01*
X149264217Y-124439498D01*
X149349127Y-124566575D01*
X149674311Y-124891759D01*
X149674202Y-125016729D01*
X149760295Y-125225090D01*
X149919571Y-125384644D01*
X150127782Y-125471101D01*
X150353229Y-125471298D01*
X150561590Y-125385205D01*
X150721144Y-125225929D01*
X150807601Y-125017718D01*
X150807798Y-124792271D01*
X150747258Y-124645754D01*
X150797729Y-124645798D01*
X151006090Y-124559705D01*
X151165644Y-124400429D01*
X151252101Y-124192218D01*
X151252298Y-123966771D01*
X151166205Y-123758410D01*
X151077200Y-123669250D01*
X151077200Y-119888000D01*
X151047384Y-119738103D01*
X151047384Y-119738102D01*
X150962474Y-119611026D01*
X149489778Y-118138330D01*
X149507500Y-118111808D01*
X149588698Y-117703600D01*
X149507500Y-117295392D01*
X149276269Y-116949329D01*
X148930206Y-116718098D01*
X148521998Y-116636900D01*
X148480202Y-116636900D01*
X148071994Y-116718098D01*
X147725931Y-116949329D01*
X147494700Y-117295392D01*
X147413502Y-117703600D01*
X147167217Y-117703600D01*
X147162681Y-115163600D01*
X147413502Y-115163600D01*
X147494700Y-115571808D01*
X147725931Y-115917871D01*
X148071994Y-116149102D01*
X148480202Y-116230300D01*
X148521998Y-116230300D01*
X148930206Y-116149102D01*
X149276269Y-115917871D01*
X149507500Y-115571808D01*
X149588698Y-115163600D01*
X149507500Y-114755392D01*
X149276269Y-114409329D01*
X148930206Y-114178098D01*
X148521998Y-114096900D01*
X148480202Y-114096900D01*
X148071994Y-114178098D01*
X147725931Y-114409329D01*
X147494700Y-114755392D01*
X147413502Y-115163600D01*
X147162681Y-115163600D01*
X147158145Y-112623600D01*
X147413502Y-112623600D01*
X147494700Y-113031808D01*
X147725931Y-113377871D01*
X148071994Y-113609102D01*
X148480202Y-113690300D01*
X148521998Y-113690300D01*
X148930206Y-113609102D01*
X149276269Y-113377871D01*
X149507500Y-113031808D01*
X149588698Y-112623600D01*
X162653502Y-112623600D01*
X162734700Y-113031808D01*
X162965931Y-113377871D01*
X163311994Y-113609102D01*
X163720202Y-113690300D01*
X163761998Y-113690300D01*
X164170206Y-113609102D01*
X164516269Y-113377871D01*
X164747500Y-113031808D01*
X164828698Y-112623600D01*
X164747500Y-112215392D01*
X164516269Y-111869329D01*
X164170206Y-111638098D01*
X163761998Y-111556900D01*
X163720202Y-111556900D01*
X163311994Y-111638098D01*
X162965931Y-111869329D01*
X162734700Y-112215392D01*
X162653502Y-112623600D01*
X149588698Y-112623600D01*
X149507500Y-112215392D01*
X149276269Y-111869329D01*
X148930206Y-111638098D01*
X148521998Y-111556900D01*
X148480202Y-111556900D01*
X148071994Y-111638098D01*
X147725931Y-111869329D01*
X147494700Y-112215392D01*
X147413502Y-112623600D01*
X147158145Y-112623600D01*
X147153609Y-110083600D01*
X147413502Y-110083600D01*
X147494700Y-110491808D01*
X147725931Y-110837871D01*
X148071994Y-111069102D01*
X148480202Y-111150300D01*
X148521998Y-111150300D01*
X148930206Y-111069102D01*
X149276269Y-110837871D01*
X149507500Y-110491808D01*
X149588698Y-110083600D01*
X162653502Y-110083600D01*
X162734700Y-110491808D01*
X162965931Y-110837871D01*
X163311994Y-111069102D01*
X163720202Y-111150300D01*
X163761998Y-111150300D01*
X164170206Y-111069102D01*
X164516269Y-110837871D01*
X164747500Y-110491808D01*
X164828698Y-110083600D01*
X164747500Y-109675392D01*
X164516269Y-109329329D01*
X164170206Y-109098098D01*
X163761998Y-109016900D01*
X163720202Y-109016900D01*
X163311994Y-109098098D01*
X162965931Y-109329329D01*
X162734700Y-109675392D01*
X162653502Y-110083600D01*
X149588698Y-110083600D01*
X149507500Y-109675392D01*
X149276269Y-109329329D01*
X148930206Y-109098098D01*
X148521998Y-109016900D01*
X148480202Y-109016900D01*
X148071994Y-109098098D01*
X147725931Y-109329329D01*
X147494700Y-109675392D01*
X147413502Y-110083600D01*
X147153609Y-110083600D01*
X147149073Y-107543600D01*
X147413502Y-107543600D01*
X147494700Y-107951808D01*
X147725931Y-108297871D01*
X148071994Y-108529102D01*
X148480202Y-108610300D01*
X148521998Y-108610300D01*
X148930206Y-108529102D01*
X149276269Y-108297871D01*
X149507500Y-107951808D01*
X149588698Y-107543600D01*
X162653502Y-107543600D01*
X162734700Y-107951808D01*
X162965931Y-108297871D01*
X163311994Y-108529102D01*
X163720202Y-108610300D01*
X163761998Y-108610300D01*
X164170206Y-108529102D01*
X164516269Y-108297871D01*
X164747500Y-107951808D01*
X164828698Y-107543600D01*
X164747500Y-107135392D01*
X164516269Y-106789329D01*
X164170206Y-106558098D01*
X163761998Y-106476900D01*
X163720202Y-106476900D01*
X163311994Y-106558098D01*
X162965931Y-106789329D01*
X162734700Y-107135392D01*
X162653502Y-107543600D01*
X149588698Y-107543600D01*
X149507500Y-107135392D01*
X149276269Y-106789329D01*
X148930206Y-106558098D01*
X148521998Y-106476900D01*
X148480202Y-106476900D01*
X148071994Y-106558098D01*
X147725931Y-106789329D01*
X147494700Y-107135392D01*
X147413502Y-107543600D01*
X147149073Y-107543600D01*
X147143108Y-104203600D01*
X147429176Y-104203600D01*
X147429176Y-105803600D01*
X147447773Y-105902433D01*
X147506183Y-105993205D01*
X147595306Y-106054100D01*
X147701100Y-106075524D01*
X149301100Y-106075524D01*
X149399933Y-106056927D01*
X149490705Y-105998517D01*
X149551600Y-105909394D01*
X149573024Y-105803600D01*
X149573024Y-105003600D01*
X162653502Y-105003600D01*
X162734700Y-105411808D01*
X162965931Y-105757871D01*
X163311994Y-105989102D01*
X163720202Y-106070300D01*
X163761998Y-106070300D01*
X164170206Y-105989102D01*
X164516269Y-105757871D01*
X164747500Y-105411808D01*
X164828698Y-105003600D01*
X164747500Y-104595392D01*
X164516269Y-104249329D01*
X164170206Y-104018098D01*
X163761998Y-103936900D01*
X163720202Y-103936900D01*
X163311994Y-104018098D01*
X162965931Y-104249329D01*
X162734700Y-104595392D01*
X162653502Y-105003600D01*
X149573024Y-105003600D01*
X149573024Y-104203600D01*
X149554427Y-104104767D01*
X149496017Y-104013995D01*
X149406894Y-103953100D01*
X149301100Y-103931676D01*
X147701100Y-103931676D01*
X147602267Y-103950273D01*
X147511495Y-104008683D01*
X147450600Y-104097806D01*
X147429176Y-104203600D01*
X147143108Y-104203600D01*
X147142223Y-103708245D01*
X164960300Y-103771655D01*
X164960300Y-103771655D01*
G37*
X164960300Y-103771655D02*
X164960300Y-139242800D01*
X147205677Y-139242800D01*
X147203500Y-138023600D01*
X147413502Y-138023600D01*
X147494700Y-138431808D01*
X147725931Y-138777871D01*
X148071994Y-139009102D01*
X148480202Y-139090300D01*
X148521998Y-139090300D01*
X148930206Y-139009102D01*
X149276269Y-138777871D01*
X149507500Y-138431808D01*
X149588698Y-138023600D01*
X162653502Y-138023600D01*
X162734700Y-138431808D01*
X162965931Y-138777871D01*
X163311994Y-139009102D01*
X163720202Y-139090300D01*
X163761998Y-139090300D01*
X164170206Y-139009102D01*
X164516269Y-138777871D01*
X164747500Y-138431808D01*
X164828698Y-138023600D01*
X164747500Y-137615392D01*
X164516269Y-137269329D01*
X164170206Y-137038098D01*
X163761998Y-136956900D01*
X163720202Y-136956900D01*
X163311994Y-137038098D01*
X162965931Y-137269329D01*
X162734700Y-137615392D01*
X162653502Y-138023600D01*
X149588698Y-138023600D01*
X149507500Y-137615392D01*
X149276269Y-137269329D01*
X148930206Y-137038098D01*
X148521998Y-136956900D01*
X148480202Y-136956900D01*
X148071994Y-137038098D01*
X147725931Y-137269329D01*
X147494700Y-137615392D01*
X147413502Y-138023600D01*
X147203500Y-138023600D01*
X147199395Y-135724902D01*
X147335284Y-135724902D01*
X147256365Y-135925054D01*
X147308766Y-136051617D01*
X147616898Y-136464666D01*
X148059642Y-136728356D01*
X148259800Y-136651915D01*
X148259800Y-135724900D01*
X148742400Y-135724900D01*
X148742400Y-136651915D01*
X148942558Y-136728356D01*
X149385302Y-136464666D01*
X149693434Y-136051617D01*
X149745835Y-135925054D01*
X149666915Y-135724900D01*
X148742400Y-135724900D01*
X148259800Y-135724900D01*
X148239800Y-135724900D01*
X148239800Y-135483600D01*
X162653502Y-135483600D01*
X162734700Y-135891808D01*
X162965931Y-136237871D01*
X163311994Y-136469102D01*
X163720202Y-136550300D01*
X163761998Y-136550300D01*
X164170206Y-136469102D01*
X164516269Y-136237871D01*
X164747500Y-135891808D01*
X164828698Y-135483600D01*
X164747500Y-135075392D01*
X164516269Y-134729329D01*
X164170206Y-134498098D01*
X163761998Y-134416900D01*
X163720202Y-134416900D01*
X163311994Y-134498098D01*
X162965931Y-134729329D01*
X162734700Y-135075392D01*
X162653502Y-135483600D01*
X148239800Y-135483600D01*
X148239800Y-135242300D01*
X148259800Y-135242300D01*
X148259800Y-134315285D01*
X148742400Y-134315285D01*
X148742400Y-135242300D01*
X149666915Y-135242300D01*
X149745835Y-135042146D01*
X149693434Y-134915583D01*
X149385302Y-134502534D01*
X148942558Y-134238844D01*
X148742400Y-134315285D01*
X148259800Y-134315285D01*
X148059642Y-134238844D01*
X147616898Y-134502534D01*
X147308766Y-134915583D01*
X147256365Y-135042146D01*
X147335284Y-135242298D01*
X147198533Y-135242298D01*
X147194429Y-132943600D01*
X147413502Y-132943600D01*
X147494700Y-133351808D01*
X147725931Y-133697871D01*
X148071994Y-133929102D01*
X148480202Y-134010300D01*
X148521998Y-134010300D01*
X148930206Y-133929102D01*
X149276269Y-133697871D01*
X149507500Y-133351808D01*
X149588698Y-132943600D01*
X162653502Y-132943600D01*
X162734700Y-133351808D01*
X162965931Y-133697871D01*
X163311994Y-133929102D01*
X163720202Y-134010300D01*
X163761998Y-134010300D01*
X164170206Y-133929102D01*
X164516269Y-133697871D01*
X164747500Y-133351808D01*
X164828698Y-132943600D01*
X164747500Y-132535392D01*
X164516269Y-132189329D01*
X164170206Y-131958098D01*
X163761998Y-131876900D01*
X163720202Y-131876900D01*
X163311994Y-131958098D01*
X162965931Y-132189329D01*
X162734700Y-132535392D01*
X162653502Y-132943600D01*
X149588698Y-132943600D01*
X149507500Y-132535392D01*
X149276269Y-132189329D01*
X148930206Y-131958098D01*
X148521998Y-131876900D01*
X148480202Y-131876900D01*
X148071994Y-131958098D01*
X147725931Y-132189329D01*
X147494700Y-132535392D01*
X147413502Y-132943600D01*
X147194429Y-132943600D01*
X147189894Y-130403600D01*
X147413502Y-130403600D01*
X147494700Y-130811808D01*
X147725931Y-131157871D01*
X148071994Y-131389102D01*
X148480202Y-131470300D01*
X148521998Y-131470300D01*
X148930206Y-131389102D01*
X149276269Y-131157871D01*
X149507500Y-130811808D01*
X149510784Y-130795300D01*
X151472900Y-130795300D01*
X151622797Y-130765484D01*
X151749874Y-130680574D01*
X152026848Y-130403600D01*
X162653502Y-130403600D01*
X162734700Y-130811808D01*
X162965931Y-131157871D01*
X163311994Y-131389102D01*
X163720202Y-131470300D01*
X163761998Y-131470300D01*
X164170206Y-131389102D01*
X164516269Y-131157871D01*
X164747500Y-130811808D01*
X164828698Y-130403600D01*
X164747500Y-129995392D01*
X164516269Y-129649329D01*
X164170206Y-129418098D01*
X163761998Y-129336900D01*
X163720202Y-129336900D01*
X163311994Y-129418098D01*
X162965931Y-129649329D01*
X162734700Y-129995392D01*
X162653502Y-130403600D01*
X152026848Y-130403600D01*
X153794219Y-128636229D01*
X160151702Y-128636229D01*
X160237795Y-128844590D01*
X160397071Y-129004144D01*
X160605282Y-129090601D01*
X160830729Y-129090798D01*
X161039090Y-129004705D01*
X161198644Y-128845429D01*
X161285101Y-128637218D01*
X161285298Y-128411771D01*
X161235200Y-128290525D01*
X161235200Y-127863600D01*
X162653502Y-127863600D01*
X162734700Y-128271808D01*
X162965931Y-128617871D01*
X163311994Y-128849102D01*
X163720202Y-128930300D01*
X163761998Y-128930300D01*
X164170206Y-128849102D01*
X164516269Y-128617871D01*
X164747500Y-128271808D01*
X164828698Y-127863600D01*
X164747500Y-127455392D01*
X164516269Y-127109329D01*
X164170206Y-126878098D01*
X163761998Y-126796900D01*
X163720202Y-126796900D01*
X163311994Y-126878098D01*
X162965931Y-127109329D01*
X162734700Y-127455392D01*
X162653502Y-127863600D01*
X161235200Y-127863600D01*
X161235200Y-125323600D01*
X162653502Y-125323600D01*
X162734700Y-125731808D01*
X162965931Y-126077871D01*
X163311994Y-126309102D01*
X163720202Y-126390300D01*
X163761998Y-126390300D01*
X164170206Y-126309102D01*
X164516269Y-126077871D01*
X164747500Y-125731808D01*
X164828698Y-125323600D01*
X164747500Y-124915392D01*
X164516269Y-124569329D01*
X164170206Y-124338098D01*
X163761998Y-124256900D01*
X163720202Y-124256900D01*
X163311994Y-124338098D01*
X162965931Y-124569329D01*
X162734700Y-124915392D01*
X162653502Y-125323600D01*
X161235200Y-125323600D01*
X161235200Y-122783600D01*
X162653502Y-122783600D01*
X162734700Y-123191808D01*
X162965931Y-123537871D01*
X163311994Y-123769102D01*
X163720202Y-123850300D01*
X163761998Y-123850300D01*
X164170206Y-123769102D01*
X164516269Y-123537871D01*
X164747500Y-123191808D01*
X164828698Y-122783600D01*
X164747500Y-122375392D01*
X164516269Y-122029329D01*
X164170206Y-121798098D01*
X163761998Y-121716900D01*
X163720202Y-121716900D01*
X163311994Y-121798098D01*
X162965931Y-122029329D01*
X162734700Y-122375392D01*
X162653502Y-122783600D01*
X161235200Y-122783600D01*
X161235200Y-120243600D01*
X162653502Y-120243600D01*
X162734700Y-120651808D01*
X162965931Y-120997871D01*
X163311994Y-121229102D01*
X163720202Y-121310300D01*
X163761998Y-121310300D01*
X164170206Y-121229102D01*
X164516269Y-120997871D01*
X164747500Y-120651808D01*
X164828698Y-120243600D01*
X164747500Y-119835392D01*
X164516269Y-119489329D01*
X164170206Y-119258098D01*
X163761998Y-119176900D01*
X163720202Y-119176900D01*
X163311994Y-119258098D01*
X162965931Y-119489329D01*
X162734700Y-119835392D01*
X162653502Y-120243600D01*
X161235200Y-120243600D01*
X161235200Y-118768524D01*
X162787796Y-117215928D01*
X162734700Y-117295392D01*
X162653502Y-117703600D01*
X162734700Y-118111808D01*
X162965931Y-118457871D01*
X163311994Y-118689102D01*
X163720202Y-118770300D01*
X163761998Y-118770300D01*
X164170206Y-118689102D01*
X164516269Y-118457871D01*
X164747500Y-118111808D01*
X164828698Y-117703600D01*
X164747500Y-117295392D01*
X164516269Y-116949329D01*
X164170206Y-116718098D01*
X163761998Y-116636900D01*
X163720202Y-116636900D01*
X163311994Y-116718098D01*
X163254469Y-116756535D01*
X163294144Y-116716929D01*
X163380601Y-116508718D01*
X163380798Y-116283271D01*
X163326557Y-116151999D01*
X163720202Y-116230300D01*
X163761998Y-116230300D01*
X164170206Y-116149102D01*
X164516269Y-115917871D01*
X164747500Y-115571808D01*
X164828698Y-115163600D01*
X164747500Y-114755392D01*
X164516269Y-114409329D01*
X164170206Y-114178098D01*
X163761998Y-114096900D01*
X163720202Y-114096900D01*
X163311994Y-114178098D01*
X162965931Y-114409329D01*
X162734700Y-114755392D01*
X162653502Y-115163600D01*
X162734700Y-115571808D01*
X162906470Y-115828881D01*
X162701771Y-115828702D01*
X162493410Y-115914795D01*
X162333856Y-116074071D01*
X162247399Y-116282282D01*
X162247388Y-116294888D01*
X160353138Y-118189138D01*
X160241131Y-118356767D01*
X160201800Y-118554500D01*
X160201800Y-128290607D01*
X160151899Y-128410782D01*
X160151702Y-128636229D01*
X153794219Y-128636229D01*
X154772474Y-127657974D01*
X154857384Y-127530897D01*
X154887200Y-127381000D01*
X154887200Y-119091219D01*
X154975644Y-119002929D01*
X155062101Y-118794718D01*
X155062298Y-118569271D01*
X154976205Y-118360910D01*
X154816929Y-118201356D01*
X154608718Y-118114899D01*
X154383271Y-118114702D01*
X154188700Y-118195097D01*
X154188700Y-113757219D01*
X154277144Y-113668929D01*
X154363601Y-113460718D01*
X154363798Y-113235271D01*
X154277705Y-113026910D01*
X154118429Y-112867356D01*
X153910218Y-112780899D01*
X153684771Y-112780702D01*
X153476410Y-112866795D01*
X153316856Y-113026071D01*
X153230399Y-113234282D01*
X153230202Y-113459729D01*
X153316295Y-113668090D01*
X153405300Y-113757250D01*
X153405300Y-120240281D01*
X153316856Y-120328571D01*
X153230399Y-120536782D01*
X153230202Y-120762229D01*
X153316295Y-120970590D01*
X153475571Y-121130144D01*
X153683782Y-121216601D01*
X153909229Y-121216798D01*
X154103800Y-121136403D01*
X154103800Y-126846573D01*
X154087205Y-126806410D01*
X153998200Y-126717250D01*
X153998200Y-122720076D01*
X154046101Y-122604718D01*
X154046298Y-122379271D01*
X153960205Y-122170910D01*
X153800929Y-122011356D01*
X153592718Y-121924899D01*
X153367271Y-121924702D01*
X153158910Y-122010795D01*
X152999356Y-122170071D01*
X152912899Y-122378282D01*
X152912702Y-122603729D01*
X152998795Y-122812090D01*
X153158071Y-122971644D01*
X153214800Y-122995200D01*
X153214800Y-126717281D01*
X153126356Y-126805571D01*
X153039899Y-127013782D01*
X153039702Y-127239229D01*
X153125795Y-127447590D01*
X153285071Y-127607144D01*
X153493282Y-127693601D01*
X153628833Y-127693719D01*
X151310652Y-130011900D01*
X149510784Y-130011900D01*
X149507500Y-129995392D01*
X149276269Y-129649329D01*
X148930206Y-129418098D01*
X148521998Y-129336900D01*
X148480202Y-129336900D01*
X148071994Y-129418098D01*
X147725931Y-129649329D01*
X147494700Y-129995392D01*
X147413502Y-130403600D01*
X147189894Y-130403600D01*
X147185359Y-127863600D01*
X147413502Y-127863600D01*
X147494700Y-128271808D01*
X147725931Y-128617871D01*
X148071994Y-128849102D01*
X148480202Y-128930300D01*
X148521998Y-128930300D01*
X148930206Y-128849102D01*
X149276269Y-128617871D01*
X149507500Y-128271808D01*
X149588698Y-127863600D01*
X149507500Y-127455392D01*
X149276269Y-127109329D01*
X148930206Y-126878098D01*
X148521998Y-126796900D01*
X148480202Y-126796900D01*
X148071994Y-126878098D01*
X147725931Y-127109329D01*
X147494700Y-127455392D01*
X147413502Y-127863600D01*
X147185359Y-127863600D01*
X147180824Y-125323600D01*
X147413502Y-125323600D01*
X147494700Y-125731808D01*
X147725931Y-126077871D01*
X148071994Y-126309102D01*
X148480202Y-126390300D01*
X148521998Y-126390300D01*
X148930206Y-126309102D01*
X149276269Y-126077871D01*
X149507500Y-125731808D01*
X149588698Y-125323600D01*
X149507500Y-124915392D01*
X149276269Y-124569329D01*
X148930206Y-124338098D01*
X148521998Y-124256900D01*
X148480202Y-124256900D01*
X148071994Y-124338098D01*
X147725931Y-124569329D01*
X147494700Y-124915392D01*
X147413502Y-125323600D01*
X147180824Y-125323600D01*
X147167217Y-117703600D01*
X147413502Y-117703600D01*
X147494700Y-118111808D01*
X147725931Y-118457871D01*
X148071994Y-118689102D01*
X148480202Y-118770300D01*
X148521998Y-118770300D01*
X148930206Y-118689102D01*
X148931673Y-118688121D01*
X150293800Y-120050248D01*
X150293800Y-123669281D01*
X150205356Y-123757571D01*
X150118899Y-123965782D01*
X150118702Y-124191229D01*
X150144773Y-124254325D01*
X150017801Y-124127353D01*
X150017801Y-121368606D01*
X150017802Y-121368601D01*
X149987985Y-121218704D01*
X149928811Y-121130144D01*
X149903075Y-121091627D01*
X149903072Y-121091625D01*
X149489778Y-120678331D01*
X149507500Y-120651808D01*
X149588698Y-120243600D01*
X149507500Y-119835392D01*
X149276269Y-119489329D01*
X148930206Y-119258098D01*
X148521998Y-119176900D01*
X148480202Y-119176900D01*
X148071994Y-119258098D01*
X147725931Y-119489329D01*
X147494700Y-119835392D01*
X147413502Y-120243600D01*
X147494700Y-120651808D01*
X147725931Y-120997871D01*
X148071994Y-121229102D01*
X148480202Y-121310300D01*
X148521998Y-121310300D01*
X148930206Y-121229102D01*
X148931674Y-121228121D01*
X149234401Y-121530848D01*
X149234401Y-122001354D01*
X148930206Y-121798098D01*
X148521998Y-121716900D01*
X148480202Y-121716900D01*
X148071994Y-121798098D01*
X147725931Y-122029329D01*
X147494700Y-122375392D01*
X147413502Y-122783600D01*
X147494700Y-123191808D01*
X147725931Y-123537871D01*
X148071994Y-123769102D01*
X148480202Y-123850300D01*
X148521998Y-123850300D01*
X148930206Y-123769102D01*
X149234401Y-123565846D01*
X149234401Y-124289601D01*
X149264217Y-124439498D01*
X149349127Y-124566575D01*
X149674311Y-124891759D01*
X149674202Y-125016729D01*
X149760295Y-125225090D01*
X149919571Y-125384644D01*
X150127782Y-125471101D01*
X150353229Y-125471298D01*
X150561590Y-125385205D01*
X150721144Y-125225929D01*
X150807601Y-125017718D01*
X150807798Y-124792271D01*
X150747258Y-124645754D01*
X150797729Y-124645798D01*
X151006090Y-124559705D01*
X151165644Y-124400429D01*
X151252101Y-124192218D01*
X151252298Y-123966771D01*
X151166205Y-123758410D01*
X151077200Y-123669250D01*
X151077200Y-119888000D01*
X151047384Y-119738103D01*
X151047384Y-119738102D01*
X150962474Y-119611026D01*
X149489778Y-118138330D01*
X149507500Y-118111808D01*
X149588698Y-117703600D01*
X149507500Y-117295392D01*
X149276269Y-116949329D01*
X148930206Y-116718098D01*
X148521998Y-116636900D01*
X148480202Y-116636900D01*
X148071994Y-116718098D01*
X147725931Y-116949329D01*
X147494700Y-117295392D01*
X147413502Y-117703600D01*
X147167217Y-117703600D01*
X147162681Y-115163600D01*
X147413502Y-115163600D01*
X147494700Y-115571808D01*
X147725931Y-115917871D01*
X148071994Y-116149102D01*
X148480202Y-116230300D01*
X148521998Y-116230300D01*
X148930206Y-116149102D01*
X149276269Y-115917871D01*
X149507500Y-115571808D01*
X149588698Y-115163600D01*
X149507500Y-114755392D01*
X149276269Y-114409329D01*
X148930206Y-114178098D01*
X148521998Y-114096900D01*
X148480202Y-114096900D01*
X148071994Y-114178098D01*
X147725931Y-114409329D01*
X147494700Y-114755392D01*
X147413502Y-115163600D01*
X147162681Y-115163600D01*
X147158145Y-112623600D01*
X147413502Y-112623600D01*
X147494700Y-113031808D01*
X147725931Y-113377871D01*
X148071994Y-113609102D01*
X148480202Y-113690300D01*
X148521998Y-113690300D01*
X148930206Y-113609102D01*
X149276269Y-113377871D01*
X149507500Y-113031808D01*
X149588698Y-112623600D01*
X162653502Y-112623600D01*
X162734700Y-113031808D01*
X162965931Y-113377871D01*
X163311994Y-113609102D01*
X163720202Y-113690300D01*
X163761998Y-113690300D01*
X164170206Y-113609102D01*
X164516269Y-113377871D01*
X164747500Y-113031808D01*
X164828698Y-112623600D01*
X164747500Y-112215392D01*
X164516269Y-111869329D01*
X164170206Y-111638098D01*
X163761998Y-111556900D01*
X163720202Y-111556900D01*
X163311994Y-111638098D01*
X162965931Y-111869329D01*
X162734700Y-112215392D01*
X162653502Y-112623600D01*
X149588698Y-112623600D01*
X149507500Y-112215392D01*
X149276269Y-111869329D01*
X148930206Y-111638098D01*
X148521998Y-111556900D01*
X148480202Y-111556900D01*
X148071994Y-111638098D01*
X147725931Y-111869329D01*
X147494700Y-112215392D01*
X147413502Y-112623600D01*
X147158145Y-112623600D01*
X147153609Y-110083600D01*
X147413502Y-110083600D01*
X147494700Y-110491808D01*
X147725931Y-110837871D01*
X148071994Y-111069102D01*
X148480202Y-111150300D01*
X148521998Y-111150300D01*
X148930206Y-111069102D01*
X149276269Y-110837871D01*
X149507500Y-110491808D01*
X149588698Y-110083600D01*
X162653502Y-110083600D01*
X162734700Y-110491808D01*
X162965931Y-110837871D01*
X163311994Y-111069102D01*
X163720202Y-111150300D01*
X163761998Y-111150300D01*
X164170206Y-111069102D01*
X164516269Y-110837871D01*
X164747500Y-110491808D01*
X164828698Y-110083600D01*
X164747500Y-109675392D01*
X164516269Y-109329329D01*
X164170206Y-109098098D01*
X163761998Y-109016900D01*
X163720202Y-109016900D01*
X163311994Y-109098098D01*
X162965931Y-109329329D01*
X162734700Y-109675392D01*
X162653502Y-110083600D01*
X149588698Y-110083600D01*
X149507500Y-109675392D01*
X149276269Y-109329329D01*
X148930206Y-109098098D01*
X148521998Y-109016900D01*
X148480202Y-109016900D01*
X148071994Y-109098098D01*
X147725931Y-109329329D01*
X147494700Y-109675392D01*
X147413502Y-110083600D01*
X147153609Y-110083600D01*
X147149073Y-107543600D01*
X147413502Y-107543600D01*
X147494700Y-107951808D01*
X147725931Y-108297871D01*
X148071994Y-108529102D01*
X148480202Y-108610300D01*
X148521998Y-108610300D01*
X148930206Y-108529102D01*
X149276269Y-108297871D01*
X149507500Y-107951808D01*
X149588698Y-107543600D01*
X162653502Y-107543600D01*
X162734700Y-107951808D01*
X162965931Y-108297871D01*
X163311994Y-108529102D01*
X163720202Y-108610300D01*
X163761998Y-108610300D01*
X164170206Y-108529102D01*
X164516269Y-108297871D01*
X164747500Y-107951808D01*
X164828698Y-107543600D01*
X164747500Y-107135392D01*
X164516269Y-106789329D01*
X164170206Y-106558098D01*
X163761998Y-106476900D01*
X163720202Y-106476900D01*
X163311994Y-106558098D01*
X162965931Y-106789329D01*
X162734700Y-107135392D01*
X162653502Y-107543600D01*
X149588698Y-107543600D01*
X149507500Y-107135392D01*
X149276269Y-106789329D01*
X148930206Y-106558098D01*
X148521998Y-106476900D01*
X148480202Y-106476900D01*
X148071994Y-106558098D01*
X147725931Y-106789329D01*
X147494700Y-107135392D01*
X147413502Y-107543600D01*
X147149073Y-107543600D01*
X147143108Y-104203600D01*
X147429176Y-104203600D01*
X147429176Y-105803600D01*
X147447773Y-105902433D01*
X147506183Y-105993205D01*
X147595306Y-106054100D01*
X147701100Y-106075524D01*
X149301100Y-106075524D01*
X149399933Y-106056927D01*
X149490705Y-105998517D01*
X149551600Y-105909394D01*
X149573024Y-105803600D01*
X149573024Y-105003600D01*
X162653502Y-105003600D01*
X162734700Y-105411808D01*
X162965931Y-105757871D01*
X163311994Y-105989102D01*
X163720202Y-106070300D01*
X163761998Y-106070300D01*
X164170206Y-105989102D01*
X164516269Y-105757871D01*
X164747500Y-105411808D01*
X164828698Y-105003600D01*
X164747500Y-104595392D01*
X164516269Y-104249329D01*
X164170206Y-104018098D01*
X163761998Y-103936900D01*
X163720202Y-103936900D01*
X163311994Y-104018098D01*
X162965931Y-104249329D01*
X162734700Y-104595392D01*
X162653502Y-105003600D01*
X149573024Y-105003600D01*
X149573024Y-104203600D01*
X149554427Y-104104767D01*
X149496017Y-104013995D01*
X149406894Y-103953100D01*
X149301100Y-103931676D01*
X147701100Y-103931676D01*
X147602267Y-103950273D01*
X147511495Y-104008683D01*
X147450600Y-104097806D01*
X147429176Y-104203600D01*
X147143108Y-104203600D01*
X147142223Y-103708245D01*
X164960300Y-103771655D01*
M02*
