G04 #@! TF.FileFunction,Soldermask,Top*
%FSLAX46Y46*%
G04 Gerber Fmt 4.6, Leading zero omitted, Abs format (unit mm)*
G04 Created by KiCad (PCBNEW 4.0.7) date 04/15/18 07:55:41*
%MOMM*%
%LPD*%
G01*
G04 APERTURE LIST*
%ADD10C,0.100000*%
%ADD11R,2.000000X2.000000*%
%ADD12O,2.000000X2.000000*%
%ADD13R,1.650000X1.400000*%
%ADD14R,1.700000X1.100000*%
%ADD15R,0.950000X2.000000*%
%ADD16R,2.000000X0.950000*%
%ADD17R,2.400000X2.800000*%
G04 APERTURE END LIST*
D10*
D11*
X148501100Y-105003600D03*
D12*
X163741100Y-138023600D03*
X148501100Y-107543600D03*
X163741100Y-135483600D03*
X148501100Y-110083600D03*
X163741100Y-132943600D03*
X148501100Y-112623600D03*
X163741100Y-130403600D03*
X148501100Y-115163600D03*
X163741100Y-127863600D03*
X148501100Y-117703600D03*
X163741100Y-125323600D03*
X148501100Y-120243600D03*
X163741100Y-122783600D03*
X148501100Y-122783600D03*
X163741100Y-120243600D03*
X148501100Y-125323600D03*
X163741100Y-117703600D03*
X148501100Y-127863600D03*
X163741100Y-115163600D03*
X148501100Y-130403600D03*
X163741100Y-112623600D03*
X148501100Y-132943600D03*
X163741100Y-110083600D03*
X148501100Y-135483600D03*
X163741100Y-107543600D03*
X148501100Y-138023600D03*
X163741100Y-105003600D03*
D13*
X160528000Y-106442000D03*
X160528000Y-108442000D03*
X156845000Y-106442000D03*
X156845000Y-108442000D03*
X161163000Y-114252500D03*
X161163000Y-116252500D03*
D14*
X159004000Y-126812000D03*
X159004000Y-128712000D03*
X154305000Y-112075000D03*
X154305000Y-110175000D03*
D15*
X159264000Y-116336500D03*
X158464000Y-116336500D03*
X157664000Y-116336500D03*
X156864000Y-116336500D03*
X156064000Y-116336500D03*
X155264000Y-116336500D03*
X154464000Y-116336500D03*
X153664000Y-116336500D03*
D16*
X152214000Y-117786500D03*
X152214000Y-118586500D03*
X152214000Y-119386500D03*
X152214000Y-120186500D03*
X152214000Y-120986500D03*
X152214000Y-121786500D03*
X152214000Y-122586500D03*
X152214000Y-123386500D03*
D15*
X153664000Y-124836500D03*
X154464000Y-124836500D03*
X155264000Y-124836500D03*
X156064000Y-124836500D03*
X156864000Y-124836500D03*
X157664000Y-124836500D03*
X158464000Y-124836500D03*
X159264000Y-124836500D03*
D16*
X160714000Y-123386500D03*
X160714000Y-122586500D03*
X160714000Y-121786500D03*
X160714000Y-120986500D03*
X160714000Y-120186500D03*
X160714000Y-119386500D03*
X160714000Y-118586500D03*
X160714000Y-117786500D03*
D17*
X156836500Y-110934500D03*
X160536500Y-110934500D03*
M02*
