G04 #@! TF.FileFunction,Legend,Bot*
%FSLAX46Y46*%
G04 Gerber Fmt 4.6, Leading zero omitted, Abs format (unit mm)*
G04 Created by KiCad (PCBNEW 4.0.7) date 04/15/18 07:55:40*
%MOMM*%
%LPD*%
G01*
G04 APERTURE LIST*
%ADD10C,0.100000*%
%ADD11C,0.254000*%
%ADD12C,0.010000*%
G04 APERTURE END LIST*
D10*
D11*
X158961667Y-107417810D02*
X158913286Y-107369430D01*
X158768143Y-107272668D01*
X158671381Y-107224287D01*
X158526238Y-107175906D01*
X158284333Y-107127525D01*
X158090810Y-107127525D01*
X157848905Y-107175906D01*
X157703762Y-107224287D01*
X157607000Y-107272668D01*
X157461857Y-107369430D01*
X157413476Y-107417810D01*
X158526238Y-108240286D02*
X158574619Y-108143524D01*
X158574619Y-107950001D01*
X158526238Y-107853239D01*
X158477857Y-107804858D01*
X158381095Y-107756477D01*
X158090810Y-107756477D01*
X157994048Y-107804858D01*
X157945667Y-107853239D01*
X157897286Y-107950001D01*
X157897286Y-108143524D01*
X157945667Y-108240286D01*
X158961667Y-108578953D02*
X158913286Y-108627334D01*
X158768143Y-108724096D01*
X158671381Y-108772477D01*
X158526238Y-108820858D01*
X158284333Y-108869239D01*
X158090810Y-108869239D01*
X157848905Y-108820858D01*
X157703762Y-108772477D01*
X157607000Y-108724096D01*
X157461857Y-108627334D01*
X157413476Y-108578953D01*
X157655381Y-110078762D02*
X157607000Y-110127143D01*
X157558619Y-110223905D01*
X157558619Y-110465809D01*
X157607000Y-110562571D01*
X157655381Y-110610952D01*
X157752143Y-110659333D01*
X157848905Y-110659333D01*
X157994048Y-110610952D01*
X158574619Y-110030381D01*
X158574619Y-110659333D01*
X157558619Y-111288286D02*
X157558619Y-111385047D01*
X157607000Y-111481809D01*
X157655381Y-111530190D01*
X157752143Y-111578571D01*
X157945667Y-111626952D01*
X158187571Y-111626952D01*
X158381095Y-111578571D01*
X158477857Y-111530190D01*
X158526238Y-111481809D01*
X158574619Y-111385047D01*
X158574619Y-111288286D01*
X158526238Y-111191524D01*
X158477857Y-111143143D01*
X158381095Y-111094762D01*
X158187571Y-111046381D01*
X157945667Y-111046381D01*
X157752143Y-111094762D01*
X157655381Y-111143143D01*
X157607000Y-111191524D01*
X157558619Y-111288286D01*
X158574619Y-112594571D02*
X158574619Y-112014000D01*
X158574619Y-112304286D02*
X157558619Y-112304286D01*
X157703762Y-112207524D01*
X157800524Y-112110762D01*
X157848905Y-112014000D01*
X157994048Y-113175143D02*
X157945667Y-113078381D01*
X157897286Y-113030000D01*
X157800524Y-112981619D01*
X157752143Y-112981619D01*
X157655381Y-113030000D01*
X157607000Y-113078381D01*
X157558619Y-113175143D01*
X157558619Y-113368666D01*
X157607000Y-113465428D01*
X157655381Y-113513809D01*
X157752143Y-113562190D01*
X157800524Y-113562190D01*
X157897286Y-113513809D01*
X157945667Y-113465428D01*
X157994048Y-113368666D01*
X157994048Y-113175143D01*
X158042429Y-113078381D01*
X158090810Y-113030000D01*
X158187571Y-112981619D01*
X158381095Y-112981619D01*
X158477857Y-113030000D01*
X158526238Y-113078381D01*
X158574619Y-113175143D01*
X158574619Y-113368666D01*
X158526238Y-113465428D01*
X158477857Y-113513809D01*
X158381095Y-113562190D01*
X158187571Y-113562190D01*
X158090810Y-113513809D01*
X158042429Y-113465428D01*
X157994048Y-113368666D01*
X158526238Y-114723333D02*
X158574619Y-114868476D01*
X158574619Y-115110380D01*
X158526238Y-115207142D01*
X158477857Y-115255523D01*
X158381095Y-115303904D01*
X158284333Y-115303904D01*
X158187571Y-115255523D01*
X158139190Y-115207142D01*
X158090810Y-115110380D01*
X158042429Y-114916857D01*
X157994048Y-114820095D01*
X157945667Y-114771714D01*
X157848905Y-114723333D01*
X157752143Y-114723333D01*
X157655381Y-114771714D01*
X157607000Y-114820095D01*
X157558619Y-114916857D01*
X157558619Y-115158761D01*
X157607000Y-115303904D01*
X158574619Y-115739333D02*
X157897286Y-115739333D01*
X157558619Y-115739333D02*
X157607000Y-115690952D01*
X157655381Y-115739333D01*
X157607000Y-115787714D01*
X157558619Y-115739333D01*
X157655381Y-115739333D01*
X158574619Y-116223143D02*
X157897286Y-116223143D01*
X157994048Y-116223143D02*
X157945667Y-116271524D01*
X157897286Y-116368286D01*
X157897286Y-116513428D01*
X157945667Y-116610190D01*
X158042429Y-116658571D01*
X158574619Y-116658571D01*
X158042429Y-116658571D02*
X157945667Y-116706952D01*
X157897286Y-116803714D01*
X157897286Y-116948857D01*
X157945667Y-117045619D01*
X158042429Y-117094000D01*
X158574619Y-117094000D01*
X158574619Y-117722953D02*
X158526238Y-117626191D01*
X158477857Y-117577810D01*
X158381095Y-117529429D01*
X158090810Y-117529429D01*
X157994048Y-117577810D01*
X157945667Y-117626191D01*
X157897286Y-117722953D01*
X157897286Y-117868095D01*
X157945667Y-117964857D01*
X157994048Y-118013238D01*
X158090810Y-118061619D01*
X158381095Y-118061619D01*
X158477857Y-118013238D01*
X158526238Y-117964857D01*
X158574619Y-117868095D01*
X158574619Y-117722953D01*
X157897286Y-118497048D02*
X158574619Y-118497048D01*
X157994048Y-118497048D02*
X157945667Y-118545429D01*
X157897286Y-118642191D01*
X157897286Y-118787333D01*
X157945667Y-118884095D01*
X158042429Y-118932476D01*
X158574619Y-118932476D01*
X158574619Y-120190381D02*
X157558619Y-120190381D01*
X157897286Y-120674191D02*
X158574619Y-120674191D01*
X157994048Y-120674191D02*
X157945667Y-120722572D01*
X157897286Y-120819334D01*
X157897286Y-120964476D01*
X157945667Y-121061238D01*
X158042429Y-121109619D01*
X158574619Y-121109619D01*
X157897286Y-121593429D02*
X158574619Y-121593429D01*
X157994048Y-121593429D02*
X157945667Y-121641810D01*
X157897286Y-121738572D01*
X157897286Y-121883714D01*
X157945667Y-121980476D01*
X158042429Y-122028857D01*
X158574619Y-122028857D01*
X158526238Y-122464286D02*
X158574619Y-122561048D01*
X158574619Y-122754572D01*
X158526238Y-122851333D01*
X158429476Y-122899714D01*
X158381095Y-122899714D01*
X158284333Y-122851333D01*
X158235952Y-122754572D01*
X158235952Y-122609429D01*
X158187571Y-122512667D01*
X158090810Y-122464286D01*
X158042429Y-122464286D01*
X157945667Y-122512667D01*
X157897286Y-122609429D01*
X157897286Y-122754572D01*
X157945667Y-122851333D01*
X158526238Y-123383524D02*
X158574619Y-123383524D01*
X158671381Y-123335143D01*
X158719762Y-123286762D01*
X158574619Y-124593048D02*
X157558619Y-124593048D01*
X157558619Y-124834953D01*
X157607000Y-124980095D01*
X157703762Y-125076857D01*
X157800524Y-125125238D01*
X157994048Y-125173619D01*
X158139190Y-125173619D01*
X158332714Y-125125238D01*
X158429476Y-125076857D01*
X158526238Y-124980095D01*
X158574619Y-124834953D01*
X158574619Y-124593048D01*
X158574619Y-126044476D02*
X158042429Y-126044476D01*
X157945667Y-125996095D01*
X157897286Y-125899333D01*
X157897286Y-125705810D01*
X157945667Y-125609048D01*
X158526238Y-126044476D02*
X158574619Y-125947714D01*
X158574619Y-125705810D01*
X158526238Y-125609048D01*
X158429476Y-125560667D01*
X158332714Y-125560667D01*
X158235952Y-125609048D01*
X158187571Y-125705810D01*
X158187571Y-125947714D01*
X158139190Y-126044476D01*
X157897286Y-126528286D02*
X158574619Y-126528286D01*
X157994048Y-126528286D02*
X157945667Y-126576667D01*
X157897286Y-126673429D01*
X157897286Y-126818571D01*
X157945667Y-126915333D01*
X158042429Y-126963714D01*
X158574619Y-126963714D01*
X158574619Y-127447524D02*
X157897286Y-127447524D01*
X157558619Y-127447524D02*
X157607000Y-127399143D01*
X157655381Y-127447524D01*
X157607000Y-127495905D01*
X157558619Y-127447524D01*
X157655381Y-127447524D01*
X158526238Y-128318381D02*
X158574619Y-128221619D01*
X158574619Y-128028096D01*
X158526238Y-127931334D01*
X158429476Y-127882953D01*
X158042429Y-127882953D01*
X157945667Y-127931334D01*
X157897286Y-128028096D01*
X157897286Y-128221619D01*
X157945667Y-128318381D01*
X158042429Y-128366762D01*
X158139190Y-128366762D01*
X158235952Y-127882953D01*
X158574619Y-128947334D02*
X158526238Y-128850572D01*
X158429476Y-128802191D01*
X157558619Y-128802191D01*
X157558619Y-130398761D02*
X158284333Y-130398761D01*
X158429476Y-130350381D01*
X158526238Y-130253619D01*
X158574619Y-130108476D01*
X158574619Y-130011714D01*
X158574619Y-131317999D02*
X158042429Y-131317999D01*
X157945667Y-131269618D01*
X157897286Y-131172856D01*
X157897286Y-130979333D01*
X157945667Y-130882571D01*
X158526238Y-131317999D02*
X158574619Y-131221237D01*
X158574619Y-130979333D01*
X158526238Y-130882571D01*
X158429476Y-130834190D01*
X158332714Y-130834190D01*
X158235952Y-130882571D01*
X158187571Y-130979333D01*
X158187571Y-131221237D01*
X158139190Y-131317999D01*
X158574619Y-131801809D02*
X157897286Y-131801809D01*
X157994048Y-131801809D02*
X157945667Y-131850190D01*
X157897286Y-131946952D01*
X157897286Y-132092094D01*
X157945667Y-132188856D01*
X158042429Y-132237237D01*
X158574619Y-132237237D01*
X158042429Y-132237237D02*
X157945667Y-132285618D01*
X157897286Y-132382380D01*
X157897286Y-132527523D01*
X157945667Y-132624285D01*
X158042429Y-132672666D01*
X158574619Y-132672666D01*
X158526238Y-133543523D02*
X158574619Y-133446761D01*
X158574619Y-133253238D01*
X158526238Y-133156476D01*
X158429476Y-133108095D01*
X158042429Y-133108095D01*
X157945667Y-133156476D01*
X157897286Y-133253238D01*
X157897286Y-133446761D01*
X157945667Y-133543523D01*
X158042429Y-133591904D01*
X158139190Y-133591904D01*
X158235952Y-133108095D01*
X158526238Y-133978952D02*
X158574619Y-134075714D01*
X158574619Y-134269238D01*
X158526238Y-134365999D01*
X158429476Y-134414380D01*
X158381095Y-134414380D01*
X158284333Y-134365999D01*
X158235952Y-134269238D01*
X158235952Y-134124095D01*
X158187571Y-134027333D01*
X158090810Y-133978952D01*
X158042429Y-133978952D01*
X157945667Y-134027333D01*
X157897286Y-134124095D01*
X157897286Y-134269238D01*
X157945667Y-134365999D01*
X158574619Y-134994952D02*
X158526238Y-134898190D01*
X158477857Y-134849809D01*
X158381095Y-134801428D01*
X158090810Y-134801428D01*
X157994048Y-134849809D01*
X157945667Y-134898190D01*
X157897286Y-134994952D01*
X157897286Y-135140094D01*
X157945667Y-135236856D01*
X157994048Y-135285237D01*
X158090810Y-135333618D01*
X158381095Y-135333618D01*
X158477857Y-135285237D01*
X158526238Y-135236856D01*
X158574619Y-135140094D01*
X158574619Y-134994952D01*
X157897286Y-135769047D02*
X158574619Y-135769047D01*
X157994048Y-135769047D02*
X157945667Y-135817428D01*
X157897286Y-135914190D01*
X157897286Y-136059332D01*
X157945667Y-136156094D01*
X158042429Y-136204475D01*
X158574619Y-136204475D01*
X160352619Y-109135334D02*
X159336619Y-109135334D01*
X160352619Y-109570762D02*
X159820429Y-109570762D01*
X159723667Y-109522381D01*
X159675286Y-109425619D01*
X159675286Y-109280477D01*
X159723667Y-109183715D01*
X159772048Y-109135334D01*
X159675286Y-109909429D02*
X159675286Y-110296477D01*
X159336619Y-110054572D02*
X160207476Y-110054572D01*
X160304238Y-110102953D01*
X160352619Y-110199715D01*
X160352619Y-110296477D01*
X159675286Y-110490000D02*
X159675286Y-110877048D01*
X159336619Y-110635143D02*
X160207476Y-110635143D01*
X160304238Y-110683524D01*
X160352619Y-110780286D01*
X160352619Y-110877048D01*
X159675286Y-111215714D02*
X160691286Y-111215714D01*
X159723667Y-111215714D02*
X159675286Y-111312476D01*
X159675286Y-111505999D01*
X159723667Y-111602761D01*
X159772048Y-111651142D01*
X159868810Y-111699523D01*
X160159095Y-111699523D01*
X160255857Y-111651142D01*
X160304238Y-111602761D01*
X160352619Y-111505999D01*
X160352619Y-111312476D01*
X160304238Y-111215714D01*
X160304238Y-112086571D02*
X160352619Y-112183333D01*
X160352619Y-112376857D01*
X160304238Y-112473618D01*
X160207476Y-112521999D01*
X160159095Y-112521999D01*
X160062333Y-112473618D01*
X160013952Y-112376857D01*
X160013952Y-112231714D01*
X159965571Y-112134952D01*
X159868810Y-112086571D01*
X159820429Y-112086571D01*
X159723667Y-112134952D01*
X159675286Y-112231714D01*
X159675286Y-112376857D01*
X159723667Y-112473618D01*
X160255857Y-112957428D02*
X160304238Y-113005809D01*
X160352619Y-112957428D01*
X160304238Y-112909047D01*
X160255857Y-112957428D01*
X160352619Y-112957428D01*
X159723667Y-112957428D02*
X159772048Y-113005809D01*
X159820429Y-112957428D01*
X159772048Y-112909047D01*
X159723667Y-112957428D01*
X159820429Y-112957428D01*
X159288238Y-114166952D02*
X160594524Y-113296095D01*
X159288238Y-115231333D02*
X160594524Y-114360476D01*
X159675286Y-115473238D02*
X160352619Y-115666762D01*
X159868810Y-115860285D01*
X160352619Y-116053809D01*
X159675286Y-116247333D01*
X159675286Y-116537619D02*
X160352619Y-116731143D01*
X159868810Y-116924666D01*
X160352619Y-117118190D01*
X159675286Y-117311714D01*
X159675286Y-117602000D02*
X160352619Y-117795524D01*
X159868810Y-117989047D01*
X160352619Y-118182571D01*
X159675286Y-118376095D01*
X160255857Y-118763143D02*
X160304238Y-118811524D01*
X160352619Y-118763143D01*
X160304238Y-118714762D01*
X160255857Y-118763143D01*
X160352619Y-118763143D01*
X159675286Y-119150191D02*
X160352619Y-119343715D01*
X159868810Y-119537238D01*
X160352619Y-119730762D01*
X159675286Y-119924286D01*
X160352619Y-120746762D02*
X159820429Y-120746762D01*
X159723667Y-120698381D01*
X159675286Y-120601619D01*
X159675286Y-120408096D01*
X159723667Y-120311334D01*
X160304238Y-120746762D02*
X160352619Y-120650000D01*
X160352619Y-120408096D01*
X160304238Y-120311334D01*
X160207476Y-120262953D01*
X160110714Y-120262953D01*
X160013952Y-120311334D01*
X159965571Y-120408096D01*
X159965571Y-120650000D01*
X159917190Y-120746762D01*
X160352619Y-121230572D02*
X159675286Y-121230572D01*
X159336619Y-121230572D02*
X159385000Y-121182191D01*
X159433381Y-121230572D01*
X159385000Y-121278953D01*
X159336619Y-121230572D01*
X159433381Y-121230572D01*
X159675286Y-121569239D02*
X159675286Y-121956287D01*
X159336619Y-121714382D02*
X160207476Y-121714382D01*
X160304238Y-121762763D01*
X160352619Y-121859525D01*
X160352619Y-121956287D01*
X160352619Y-122294953D02*
X159675286Y-122294953D01*
X159336619Y-122294953D02*
X159385000Y-122246572D01*
X159433381Y-122294953D01*
X159385000Y-122343334D01*
X159336619Y-122294953D01*
X159433381Y-122294953D01*
X159675286Y-122778763D02*
X160352619Y-122778763D01*
X159772048Y-122778763D02*
X159723667Y-122827144D01*
X159675286Y-122923906D01*
X159675286Y-123069048D01*
X159723667Y-123165810D01*
X159820429Y-123214191D01*
X160352619Y-123214191D01*
X159675286Y-124133429D02*
X160497762Y-124133429D01*
X160594524Y-124085048D01*
X160642905Y-124036667D01*
X160691286Y-123939906D01*
X160691286Y-123794763D01*
X160642905Y-123698001D01*
X160304238Y-124133429D02*
X160352619Y-124036667D01*
X160352619Y-123843144D01*
X160304238Y-123746382D01*
X160255857Y-123698001D01*
X160159095Y-123649620D01*
X159868810Y-123649620D01*
X159772048Y-123698001D01*
X159723667Y-123746382D01*
X159675286Y-123843144D01*
X159675286Y-124036667D01*
X159723667Y-124133429D01*
X159675286Y-124472096D02*
X159675286Y-124859144D01*
X160352619Y-124617239D02*
X159481762Y-124617239D01*
X159385000Y-124665620D01*
X159336619Y-124762382D01*
X159336619Y-124859144D01*
X160352619Y-125342953D02*
X160304238Y-125246191D01*
X160255857Y-125197810D01*
X160159095Y-125149429D01*
X159868810Y-125149429D01*
X159772048Y-125197810D01*
X159723667Y-125246191D01*
X159675286Y-125342953D01*
X159675286Y-125488095D01*
X159723667Y-125584857D01*
X159772048Y-125633238D01*
X159868810Y-125681619D01*
X160159095Y-125681619D01*
X160255857Y-125633238D01*
X160304238Y-125584857D01*
X160352619Y-125488095D01*
X160352619Y-125342953D01*
X160352619Y-126117048D02*
X159675286Y-126117048D01*
X159868810Y-126117048D02*
X159772048Y-126165429D01*
X159723667Y-126213810D01*
X159675286Y-126310572D01*
X159675286Y-126407333D01*
X159675286Y-126600857D02*
X159675286Y-126987905D01*
X160352619Y-126746000D02*
X159481762Y-126746000D01*
X159385000Y-126794381D01*
X159336619Y-126891143D01*
X159336619Y-126987905D01*
X160352619Y-127326571D02*
X159675286Y-127326571D01*
X159868810Y-127326571D02*
X159772048Y-127374952D01*
X159723667Y-127423333D01*
X159675286Y-127520095D01*
X159675286Y-127616856D01*
X160352619Y-127955523D02*
X159675286Y-127955523D01*
X159336619Y-127955523D02*
X159385000Y-127907142D01*
X159433381Y-127955523D01*
X159385000Y-128003904D01*
X159336619Y-127955523D01*
X159433381Y-127955523D01*
X160352619Y-128874761D02*
X159336619Y-128874761D01*
X160304238Y-128874761D02*
X160352619Y-128777999D01*
X160352619Y-128584476D01*
X160304238Y-128487714D01*
X160255857Y-128439333D01*
X160159095Y-128390952D01*
X159868810Y-128390952D01*
X159772048Y-128439333D01*
X159723667Y-128487714D01*
X159675286Y-128584476D01*
X159675286Y-128777999D01*
X159723667Y-128874761D01*
X160352619Y-129793999D02*
X159820429Y-129793999D01*
X159723667Y-129745618D01*
X159675286Y-129648856D01*
X159675286Y-129455333D01*
X159723667Y-129358571D01*
X160304238Y-129793999D02*
X160352619Y-129697237D01*
X160352619Y-129455333D01*
X160304238Y-129358571D01*
X160207476Y-129310190D01*
X160110714Y-129310190D01*
X160013952Y-129358571D01*
X159965571Y-129455333D01*
X159965571Y-129697237D01*
X159917190Y-129793999D01*
X159675286Y-130181047D02*
X160352619Y-130422952D01*
X159675286Y-130664856D02*
X160352619Y-130422952D01*
X160594524Y-130326190D01*
X160642905Y-130277809D01*
X160691286Y-130181047D01*
X160255857Y-131051904D02*
X160304238Y-131100285D01*
X160352619Y-131051904D01*
X160304238Y-131003523D01*
X160255857Y-131051904D01*
X160352619Y-131051904D01*
X160304238Y-131971142D02*
X160352619Y-131874380D01*
X160352619Y-131680857D01*
X160304238Y-131584095D01*
X160255857Y-131535714D01*
X160159095Y-131487333D01*
X159868810Y-131487333D01*
X159772048Y-131535714D01*
X159723667Y-131584095D01*
X159675286Y-131680857D01*
X159675286Y-131874380D01*
X159723667Y-131971142D01*
X160352619Y-132551714D02*
X160304238Y-132454952D01*
X160255857Y-132406571D01*
X160159095Y-132358190D01*
X159868810Y-132358190D01*
X159772048Y-132406571D01*
X159723667Y-132454952D01*
X159675286Y-132551714D01*
X159675286Y-132696856D01*
X159723667Y-132793618D01*
X159772048Y-132841999D01*
X159868810Y-132890380D01*
X160159095Y-132890380D01*
X160255857Y-132841999D01*
X160304238Y-132793618D01*
X160352619Y-132696856D01*
X160352619Y-132551714D01*
X160352619Y-133325809D02*
X159675286Y-133325809D01*
X159772048Y-133325809D02*
X159723667Y-133374190D01*
X159675286Y-133470952D01*
X159675286Y-133616094D01*
X159723667Y-133712856D01*
X159820429Y-133761237D01*
X160352619Y-133761237D01*
X159820429Y-133761237D02*
X159723667Y-133809618D01*
X159675286Y-133906380D01*
X159675286Y-134051523D01*
X159723667Y-134148285D01*
X159820429Y-134196666D01*
X160352619Y-134196666D01*
D12*
G36*
X156506333Y-130577167D02*
X156506333Y-113643834D01*
X150749000Y-113643834D01*
X150749000Y-113813167D01*
X154728333Y-113813167D01*
X154728333Y-114095330D01*
X154757489Y-114296963D01*
X154868339Y-114470393D01*
X155069956Y-114652029D01*
X155506528Y-115085872D01*
X155794912Y-115575885D01*
X155944213Y-116143256D01*
X155967094Y-116739854D01*
X155928915Y-117149968D01*
X155841080Y-117479646D01*
X155695368Y-117789671D01*
X155478396Y-118112170D01*
X155236333Y-118377240D01*
X155236333Y-121687167D01*
X156167667Y-121687167D01*
X156167667Y-121973133D01*
X156137768Y-122195041D01*
X156065255Y-122343726D01*
X156059777Y-122348640D01*
X155909132Y-122395396D01*
X155666657Y-122398014D01*
X155594110Y-122390192D01*
X155369852Y-122351338D01*
X155266753Y-122282464D01*
X155247919Y-122186160D01*
X155247919Y-122607921D01*
X155377365Y-122612259D01*
X155486129Y-122658659D01*
X155709638Y-122749971D01*
X155895351Y-122787834D01*
X156058033Y-122814769D01*
X156111222Y-122844278D01*
X156166031Y-122961331D01*
X156067908Y-123030265D01*
X155947903Y-123041834D01*
X155896136Y-123053328D01*
X155896136Y-125612037D01*
X156003600Y-125684240D01*
X156023280Y-125703542D01*
X156153191Y-125930434D01*
X156132651Y-126116279D01*
X156132651Y-126472026D01*
X156166410Y-126547740D01*
X156066319Y-126640982D01*
X156040667Y-126651882D01*
X155934162Y-126767205D01*
X155913667Y-126863549D01*
X155971700Y-127022456D01*
X156040667Y-127075216D01*
X156151585Y-127160699D01*
X156148414Y-127247570D01*
X156064664Y-127275167D01*
X155878999Y-127241195D01*
X155648092Y-127156898D01*
X155427874Y-127048700D01*
X155274276Y-126943028D01*
X155236333Y-126883800D01*
X155316068Y-126772908D01*
X155541079Y-126643155D01*
X155890076Y-126506169D01*
X155984541Y-126475211D01*
X156132651Y-126472026D01*
X156132651Y-126116279D01*
X156127107Y-126166442D01*
X156038216Y-126291855D01*
X155867732Y-126381960D01*
X155712116Y-126308889D01*
X155583900Y-126078785D01*
X155579805Y-126067223D01*
X155502180Y-125897716D01*
X155426634Y-125874220D01*
X155387622Y-125904678D01*
X155331196Y-126019922D01*
X155388733Y-126106767D01*
X155482221Y-126247105D01*
X155454423Y-126333633D01*
X155403851Y-126343834D01*
X155308679Y-126275217D01*
X155222070Y-126134674D01*
X155170089Y-125940692D01*
X155234252Y-125796007D01*
X155413088Y-125673814D01*
X155587350Y-125709179D01*
X155721441Y-125893192D01*
X155731646Y-125920500D01*
X155818066Y-126096599D01*
X155905742Y-126174310D01*
X155909262Y-126174500D01*
X155982135Y-126110117D01*
X155993303Y-125973256D01*
X155944727Y-125848344D01*
X155900967Y-125817489D01*
X155834595Y-125724059D01*
X155841246Y-125672094D01*
X155896136Y-125612037D01*
X155896136Y-123053328D01*
X155726659Y-123090959D01*
X155492305Y-123209889D01*
X155482237Y-123216932D01*
X155317392Y-123321293D01*
X155247079Y-123320739D01*
X155236333Y-123263473D01*
X155302032Y-123117436D01*
X155384500Y-123046103D01*
X155486427Y-122968725D01*
X155450207Y-122895478D01*
X155384500Y-122842062D01*
X155244827Y-122694394D01*
X155247919Y-122607921D01*
X155247919Y-122186160D01*
X155237753Y-122134178D01*
X155236333Y-122014686D01*
X155236333Y-121687167D01*
X155236333Y-118377240D01*
X155213281Y-118402483D01*
X155092294Y-118503651D01*
X154734937Y-118766167D01*
X154731635Y-124587000D01*
X154728333Y-130407834D01*
X150749000Y-130407834D01*
X150749000Y-113813167D01*
X150749000Y-113643834D01*
X150579667Y-113643834D01*
X150579667Y-130577167D01*
X156506333Y-130577167D01*
X156506333Y-130577167D01*
G37*
X156506333Y-130577167D02*
X156506333Y-113643834D01*
X150749000Y-113643834D01*
X150749000Y-113813167D01*
X154728333Y-113813167D01*
X154728333Y-114095330D01*
X154757489Y-114296963D01*
X154868339Y-114470393D01*
X155069956Y-114652029D01*
X155506528Y-115085872D01*
X155794912Y-115575885D01*
X155944213Y-116143256D01*
X155967094Y-116739854D01*
X155928915Y-117149968D01*
X155841080Y-117479646D01*
X155695368Y-117789671D01*
X155478396Y-118112170D01*
X155236333Y-118377240D01*
X155236333Y-121687167D01*
X156167667Y-121687167D01*
X156167667Y-121973133D01*
X156137768Y-122195041D01*
X156065255Y-122343726D01*
X156059777Y-122348640D01*
X155909132Y-122395396D01*
X155666657Y-122398014D01*
X155594110Y-122390192D01*
X155369852Y-122351338D01*
X155266753Y-122282464D01*
X155247919Y-122186160D01*
X155247919Y-122607921D01*
X155377365Y-122612259D01*
X155486129Y-122658659D01*
X155709638Y-122749971D01*
X155895351Y-122787834D01*
X156058033Y-122814769D01*
X156111222Y-122844278D01*
X156166031Y-122961331D01*
X156067908Y-123030265D01*
X155947903Y-123041834D01*
X155896136Y-123053328D01*
X155896136Y-125612037D01*
X156003600Y-125684240D01*
X156023280Y-125703542D01*
X156153191Y-125930434D01*
X156132651Y-126116279D01*
X156132651Y-126472026D01*
X156166410Y-126547740D01*
X156066319Y-126640982D01*
X156040667Y-126651882D01*
X155934162Y-126767205D01*
X155913667Y-126863549D01*
X155971700Y-127022456D01*
X156040667Y-127075216D01*
X156151585Y-127160699D01*
X156148414Y-127247570D01*
X156064664Y-127275167D01*
X155878999Y-127241195D01*
X155648092Y-127156898D01*
X155427874Y-127048700D01*
X155274276Y-126943028D01*
X155236333Y-126883800D01*
X155316068Y-126772908D01*
X155541079Y-126643155D01*
X155890076Y-126506169D01*
X155984541Y-126475211D01*
X156132651Y-126472026D01*
X156132651Y-126116279D01*
X156127107Y-126166442D01*
X156038216Y-126291855D01*
X155867732Y-126381960D01*
X155712116Y-126308889D01*
X155583900Y-126078785D01*
X155579805Y-126067223D01*
X155502180Y-125897716D01*
X155426634Y-125874220D01*
X155387622Y-125904678D01*
X155331196Y-126019922D01*
X155388733Y-126106767D01*
X155482221Y-126247105D01*
X155454423Y-126333633D01*
X155403851Y-126343834D01*
X155308679Y-126275217D01*
X155222070Y-126134674D01*
X155170089Y-125940692D01*
X155234252Y-125796007D01*
X155413088Y-125673814D01*
X155587350Y-125709179D01*
X155721441Y-125893192D01*
X155731646Y-125920500D01*
X155818066Y-126096599D01*
X155905742Y-126174310D01*
X155909262Y-126174500D01*
X155982135Y-126110117D01*
X155993303Y-125973256D01*
X155944727Y-125848344D01*
X155900967Y-125817489D01*
X155834595Y-125724059D01*
X155841246Y-125672094D01*
X155896136Y-125612037D01*
X155896136Y-123053328D01*
X155726659Y-123090959D01*
X155492305Y-123209889D01*
X155482237Y-123216932D01*
X155317392Y-123321293D01*
X155247079Y-123320739D01*
X155236333Y-123263473D01*
X155302032Y-123117436D01*
X155384500Y-123046103D01*
X155486427Y-122968725D01*
X155450207Y-122895478D01*
X155384500Y-122842062D01*
X155244827Y-122694394D01*
X155247919Y-122607921D01*
X155247919Y-122186160D01*
X155237753Y-122134178D01*
X155236333Y-122014686D01*
X155236333Y-121687167D01*
X155236333Y-118377240D01*
X155213281Y-118402483D01*
X155092294Y-118503651D01*
X154734937Y-118766167D01*
X154731635Y-124587000D01*
X154728333Y-130407834D01*
X150749000Y-130407834D01*
X150749000Y-113813167D01*
X150749000Y-113643834D01*
X150579667Y-113643834D01*
X150579667Y-130577167D01*
X156506333Y-130577167D01*
G36*
X155797273Y-122163738D02*
X155871333Y-122195167D01*
X155977942Y-122132272D01*
X155991953Y-121998549D01*
X155941889Y-121912945D01*
X155821062Y-121858701D01*
X155750924Y-121954218D01*
X155744333Y-122025834D01*
X155797273Y-122163738D01*
X155797273Y-122163738D01*
G37*
X155797273Y-122163738D02*
X155871333Y-122195167D01*
X155977942Y-122132272D01*
X155991953Y-121998549D01*
X155941889Y-121912945D01*
X155821062Y-121858701D01*
X155750924Y-121954218D01*
X155744333Y-122025834D01*
X155797273Y-122163738D01*
G36*
X155441123Y-122163414D02*
X155490333Y-122195167D01*
X155559123Y-122124254D01*
X155575000Y-122025834D01*
X155539544Y-121888253D01*
X155490333Y-121856500D01*
X155421543Y-121927413D01*
X155405667Y-122025834D01*
X155441123Y-122163414D01*
X155441123Y-122163414D01*
G37*
X155441123Y-122163414D02*
X155490333Y-122195167D01*
X155559123Y-122124254D01*
X155575000Y-122025834D01*
X155539544Y-121888253D01*
X155490333Y-121856500D01*
X155421543Y-121927413D01*
X155405667Y-122025834D01*
X155441123Y-122163414D01*
G36*
X155551860Y-126924317D02*
X155612336Y-126936500D01*
X155728179Y-126892296D01*
X155744333Y-126851834D01*
X155683566Y-126769590D01*
X155664663Y-126767167D01*
X155549996Y-126828711D01*
X155532667Y-126851834D01*
X155551860Y-126924317D01*
X155551860Y-126924317D01*
G37*
X155551860Y-126924317D02*
X155612336Y-126936500D01*
X155728179Y-126892296D01*
X155744333Y-126851834D01*
X155683566Y-126769590D01*
X155664663Y-126767167D01*
X155549996Y-126828711D01*
X155532667Y-126851834D01*
X155551860Y-126924317D01*
G36*
X151227201Y-117169166D02*
X151437342Y-117716073D01*
X151773178Y-118167742D01*
X152220846Y-118508679D01*
X152766484Y-118723388D01*
X153165177Y-118787763D01*
X153784831Y-118761250D01*
X154338487Y-118579726D01*
X154819334Y-118246834D01*
X155220559Y-117766218D01*
X155291923Y-117650518D01*
X155436657Y-117300889D01*
X155528442Y-116873350D01*
X155558199Y-116438974D01*
X155516850Y-116068836D01*
X155500969Y-116013952D01*
X155233726Y-115447839D01*
X154849095Y-114989975D01*
X154367054Y-114655134D01*
X153807580Y-114458088D01*
X153331333Y-114409552D01*
X153322448Y-114410687D01*
X153322448Y-114829167D01*
X153730493Y-114852177D01*
X154044236Y-114938480D01*
X154334534Y-115113984D01*
X154520552Y-115267269D01*
X154869868Y-115675728D01*
X155081740Y-116149706D01*
X155147852Y-116655924D01*
X155059883Y-117161102D01*
X155020175Y-117266053D01*
X154753255Y-117714202D01*
X154392526Y-118049552D01*
X153966429Y-118270460D01*
X153503407Y-118375283D01*
X153031905Y-118362382D01*
X152580363Y-118230113D01*
X152177226Y-117976834D01*
X151850936Y-117600905D01*
X151767093Y-117453834D01*
X151583288Y-116976408D01*
X151542566Y-116521136D01*
X151593502Y-116192855D01*
X151795043Y-115690769D01*
X152122256Y-115286585D01*
X152551039Y-114999311D01*
X153057293Y-114847957D01*
X153322448Y-114829167D01*
X153322448Y-114410687D01*
X152731716Y-114486208D01*
X152202036Y-114703924D01*
X151761028Y-115044327D01*
X151427426Y-115489042D01*
X151219962Y-116019695D01*
X151156617Y-116542520D01*
X151227201Y-117169166D01*
X151227201Y-117169166D01*
G37*
X151227201Y-117169166D02*
X151437342Y-117716073D01*
X151773178Y-118167742D01*
X152220846Y-118508679D01*
X152766484Y-118723388D01*
X153165177Y-118787763D01*
X153784831Y-118761250D01*
X154338487Y-118579726D01*
X154819334Y-118246834D01*
X155220559Y-117766218D01*
X155291923Y-117650518D01*
X155436657Y-117300889D01*
X155528442Y-116873350D01*
X155558199Y-116438974D01*
X155516850Y-116068836D01*
X155500969Y-116013952D01*
X155233726Y-115447839D01*
X154849095Y-114989975D01*
X154367054Y-114655134D01*
X153807580Y-114458088D01*
X153331333Y-114409552D01*
X153322448Y-114410687D01*
X153322448Y-114829167D01*
X153730493Y-114852177D01*
X154044236Y-114938480D01*
X154334534Y-115113984D01*
X154520552Y-115267269D01*
X154869868Y-115675728D01*
X155081740Y-116149706D01*
X155147852Y-116655924D01*
X155059883Y-117161102D01*
X155020175Y-117266053D01*
X154753255Y-117714202D01*
X154392526Y-118049552D01*
X153966429Y-118270460D01*
X153503407Y-118375283D01*
X153031905Y-118362382D01*
X152580363Y-118230113D01*
X152177226Y-117976834D01*
X151850936Y-117600905D01*
X151767093Y-117453834D01*
X151583288Y-116976408D01*
X151542566Y-116521136D01*
X151593502Y-116192855D01*
X151795043Y-115690769D01*
X152122256Y-115286585D01*
X152551039Y-114999311D01*
X153057293Y-114847957D01*
X153322448Y-114829167D01*
X153322448Y-114410687D01*
X152731716Y-114486208D01*
X152202036Y-114703924D01*
X151761028Y-115044327D01*
X151427426Y-115489042D01*
X151219962Y-116019695D01*
X151156617Y-116542520D01*
X151227201Y-117169166D01*
G36*
X151132482Y-123011169D02*
X151299639Y-123446910D01*
X151614279Y-123812540D01*
X151793864Y-123950836D01*
X152014854Y-124084307D01*
X152231682Y-124155498D01*
X152513683Y-124182385D01*
X152696333Y-124184834D01*
X153036264Y-124172941D01*
X153276769Y-124125440D01*
X153486810Y-124024600D01*
X153594348Y-123953923D01*
X153983596Y-123588376D01*
X154230458Y-123139855D01*
X154326245Y-122629306D01*
X154299944Y-122253183D01*
X154186181Y-121897594D01*
X153957368Y-121565997D01*
X153593560Y-121226722D01*
X153400076Y-121085308D01*
X153220140Y-121007234D01*
X152990340Y-120974191D01*
X152697001Y-120967821D01*
X152696333Y-120967837D01*
X152696333Y-121263834D01*
X153143058Y-121337644D01*
X153520121Y-121539930D01*
X153807789Y-121841973D01*
X153986330Y-122215052D01*
X154036009Y-122630449D01*
X153937093Y-123059445D01*
X153934427Y-123065720D01*
X153793988Y-123303386D01*
X153594195Y-123546334D01*
X153547868Y-123592167D01*
X153386179Y-123729038D01*
X153229940Y-123805502D01*
X153021298Y-123838798D01*
X152702399Y-123846166D01*
X152695476Y-123846167D01*
X152378617Y-123840131D01*
X152171813Y-123808927D01*
X152015873Y-123732913D01*
X151851609Y-123592444D01*
X151809813Y-123552237D01*
X151527859Y-123180208D01*
X151389865Y-122776405D01*
X151384766Y-122369390D01*
X151501496Y-121987724D01*
X151728990Y-121659970D01*
X152056185Y-121414690D01*
X152472014Y-121280447D01*
X152696333Y-121263834D01*
X152696333Y-120967837D01*
X152371256Y-120975996D01*
X152151089Y-121013151D01*
X151973084Y-121097561D01*
X151799775Y-121226401D01*
X151471821Y-121520548D01*
X151266142Y-121793417D01*
X151153113Y-122098563D01*
X151103377Y-122485307D01*
X151132482Y-123011169D01*
X151132482Y-123011169D01*
G37*
X151132482Y-123011169D02*
X151299639Y-123446910D01*
X151614279Y-123812540D01*
X151793864Y-123950836D01*
X152014854Y-124084307D01*
X152231682Y-124155498D01*
X152513683Y-124182385D01*
X152696333Y-124184834D01*
X153036264Y-124172941D01*
X153276769Y-124125440D01*
X153486810Y-124024600D01*
X153594348Y-123953923D01*
X153983596Y-123588376D01*
X154230458Y-123139855D01*
X154326245Y-122629306D01*
X154299944Y-122253183D01*
X154186181Y-121897594D01*
X153957368Y-121565997D01*
X153593560Y-121226722D01*
X153400076Y-121085308D01*
X153220140Y-121007234D01*
X152990340Y-120974191D01*
X152697001Y-120967821D01*
X152696333Y-120967837D01*
X152696333Y-121263834D01*
X153143058Y-121337644D01*
X153520121Y-121539930D01*
X153807789Y-121841973D01*
X153986330Y-122215052D01*
X154036009Y-122630449D01*
X153937093Y-123059445D01*
X153934427Y-123065720D01*
X153793988Y-123303386D01*
X153594195Y-123546334D01*
X153547868Y-123592167D01*
X153386179Y-123729038D01*
X153229940Y-123805502D01*
X153021298Y-123838798D01*
X152702399Y-123846166D01*
X152695476Y-123846167D01*
X152378617Y-123840131D01*
X152171813Y-123808927D01*
X152015873Y-123732913D01*
X151851609Y-123592444D01*
X151809813Y-123552237D01*
X151527859Y-123180208D01*
X151389865Y-122776405D01*
X151384766Y-122369390D01*
X151501496Y-121987724D01*
X151728990Y-121659970D01*
X152056185Y-121414690D01*
X152472014Y-121280447D01*
X152696333Y-121263834D01*
X152696333Y-120967837D01*
X152371256Y-120975996D01*
X152151089Y-121013151D01*
X151973084Y-121097561D01*
X151799775Y-121226401D01*
X151471821Y-121520548D01*
X151266142Y-121793417D01*
X151153113Y-122098563D01*
X151103377Y-122485307D01*
X151132482Y-123011169D01*
G36*
X151136521Y-126939375D02*
X151165238Y-127174217D01*
X151229880Y-127351350D01*
X151344178Y-127526480D01*
X151368471Y-127558666D01*
X151649303Y-127872921D01*
X151943016Y-128066921D01*
X152314334Y-128181615D01*
X152370510Y-128192617D01*
X152889007Y-128213373D01*
X153358971Y-128089793D01*
X153759435Y-127843386D01*
X154069433Y-127495661D01*
X154267998Y-127068127D01*
X154334162Y-126582292D01*
X154291201Y-126222277D01*
X154107594Y-125769120D01*
X153795030Y-125395787D01*
X153384456Y-125126391D01*
X152906822Y-124985043D01*
X152696333Y-124970522D01*
X152696333Y-125243167D01*
X153081734Y-125319187D01*
X153458968Y-125523206D01*
X153777948Y-125819162D01*
X153988584Y-126170991D01*
X153989910Y-126174500D01*
X154042813Y-126511469D01*
X153991690Y-126898047D01*
X153883583Y-127186743D01*
X153613545Y-127570149D01*
X153263048Y-127807181D01*
X152818517Y-127906066D01*
X152689743Y-127910167D01*
X152366937Y-127891079D01*
X152129806Y-127817713D01*
X151914135Y-127678790D01*
X151634187Y-127377258D01*
X151439733Y-126993000D01*
X151357054Y-126588176D01*
X151367603Y-126386143D01*
X151510456Y-125991288D01*
X151779419Y-125648264D01*
X152134339Y-125391612D01*
X152535060Y-125255874D01*
X152696333Y-125243167D01*
X152696333Y-124970522D01*
X152683387Y-124969628D01*
X152177812Y-125050869D01*
X151725173Y-125289839D01*
X151388511Y-125616818D01*
X151255772Y-125795163D01*
X151178294Y-125958693D01*
X151141404Y-126162700D01*
X151130433Y-126462475D01*
X151130000Y-126591116D01*
X151136521Y-126939375D01*
X151136521Y-126939375D01*
G37*
X151136521Y-126939375D02*
X151165238Y-127174217D01*
X151229880Y-127351350D01*
X151344178Y-127526480D01*
X151368471Y-127558666D01*
X151649303Y-127872921D01*
X151943016Y-128066921D01*
X152314334Y-128181615D01*
X152370510Y-128192617D01*
X152889007Y-128213373D01*
X153358971Y-128089793D01*
X153759435Y-127843386D01*
X154069433Y-127495661D01*
X154267998Y-127068127D01*
X154334162Y-126582292D01*
X154291201Y-126222277D01*
X154107594Y-125769120D01*
X153795030Y-125395787D01*
X153384456Y-125126391D01*
X152906822Y-124985043D01*
X152696333Y-124970522D01*
X152696333Y-125243167D01*
X153081734Y-125319187D01*
X153458968Y-125523206D01*
X153777948Y-125819162D01*
X153988584Y-126170991D01*
X153989910Y-126174500D01*
X154042813Y-126511469D01*
X153991690Y-126898047D01*
X153883583Y-127186743D01*
X153613545Y-127570149D01*
X153263048Y-127807181D01*
X152818517Y-127906066D01*
X152689743Y-127910167D01*
X152366937Y-127891079D01*
X152129806Y-127817713D01*
X151914135Y-127678790D01*
X151634187Y-127377258D01*
X151439733Y-126993000D01*
X151357054Y-126588176D01*
X151367603Y-126386143D01*
X151510456Y-125991288D01*
X151779419Y-125648264D01*
X152134339Y-125391612D01*
X152535060Y-125255874D01*
X152696333Y-125243167D01*
X152696333Y-124970522D01*
X152683387Y-124969628D01*
X152177812Y-125050869D01*
X151725173Y-125289839D01*
X151388511Y-125616818D01*
X151255772Y-125795163D01*
X151178294Y-125958693D01*
X151141404Y-126162700D01*
X151130433Y-126462475D01*
X151130000Y-126591116D01*
X151136521Y-126939375D01*
G36*
X152727332Y-116168050D02*
X152793239Y-116361305D01*
X152887963Y-116479817D01*
X152988017Y-116485389D01*
X153025621Y-116445409D01*
X153051145Y-116265571D01*
X153013867Y-116181458D01*
X152952812Y-115977559D01*
X153041570Y-115831284D01*
X153264763Y-115763024D01*
X153331333Y-115760500D01*
X153582417Y-115808577D01*
X153702494Y-115939216D01*
X153676189Y-116132029D01*
X153648799Y-116181458D01*
X153606839Y-116371381D01*
X153637157Y-116445409D01*
X153712494Y-116506308D01*
X153812476Y-116444277D01*
X153883387Y-116364954D01*
X154024660Y-116128994D01*
X154026300Y-115888849D01*
X153941816Y-115675834D01*
X153751150Y-115479160D01*
X153518117Y-115385340D01*
X153185328Y-115373782D01*
X152920463Y-115502790D01*
X152753500Y-115751760D01*
X152713732Y-115938244D01*
X152727332Y-116168050D01*
X152727332Y-116168050D01*
G37*
X152727332Y-116168050D02*
X152793239Y-116361305D01*
X152887963Y-116479817D01*
X152988017Y-116485389D01*
X153025621Y-116445409D01*
X153051145Y-116265571D01*
X153013867Y-116181458D01*
X152952812Y-115977559D01*
X153041570Y-115831284D01*
X153264763Y-115763024D01*
X153331333Y-115760500D01*
X153582417Y-115808577D01*
X153702494Y-115939216D01*
X153676189Y-116132029D01*
X153648799Y-116181458D01*
X153606839Y-116371381D01*
X153637157Y-116445409D01*
X153712494Y-116506308D01*
X153812476Y-116444277D01*
X153883387Y-116364954D01*
X154024660Y-116128994D01*
X154026300Y-115888849D01*
X153941816Y-115675834D01*
X153751150Y-115479160D01*
X153518117Y-115385340D01*
X153185328Y-115373782D01*
X152920463Y-115502790D01*
X152753500Y-115751760D01*
X152713732Y-115938244D01*
X152727332Y-116168050D01*
G36*
X152728300Y-117468196D02*
X152807548Y-117655608D01*
X152909100Y-117757706D01*
X153007978Y-117737832D01*
X153025621Y-117715409D01*
X153051145Y-117535571D01*
X153013867Y-117451458D01*
X152952812Y-117247559D01*
X153041570Y-117101284D01*
X153264763Y-117033024D01*
X153331333Y-117030500D01*
X153582417Y-117078577D01*
X153702494Y-117209216D01*
X153676189Y-117402029D01*
X153648799Y-117451458D01*
X153606839Y-117641381D01*
X153637157Y-117715409D01*
X153712494Y-117776308D01*
X153812476Y-117714277D01*
X153883387Y-117634954D01*
X154011503Y-117427141D01*
X154030745Y-117198831D01*
X153992415Y-117008183D01*
X153883332Y-116858188D01*
X153674420Y-116717116D01*
X153432496Y-116623927D01*
X153304622Y-116607167D01*
X153048533Y-116682730D01*
X152832519Y-116873837D01*
X152708529Y-117127115D01*
X152696333Y-117232130D01*
X152728300Y-117468196D01*
X152728300Y-117468196D01*
G37*
X152728300Y-117468196D02*
X152807548Y-117655608D01*
X152909100Y-117757706D01*
X153007978Y-117737832D01*
X153025621Y-117715409D01*
X153051145Y-117535571D01*
X153013867Y-117451458D01*
X152952812Y-117247559D01*
X153041570Y-117101284D01*
X153264763Y-117033024D01*
X153331333Y-117030500D01*
X153582417Y-117078577D01*
X153702494Y-117209216D01*
X153676189Y-117402029D01*
X153648799Y-117451458D01*
X153606839Y-117641381D01*
X153637157Y-117715409D01*
X153712494Y-117776308D01*
X153812476Y-117714277D01*
X153883387Y-117634954D01*
X154011503Y-117427141D01*
X154030745Y-117198831D01*
X153992415Y-117008183D01*
X153883332Y-116858188D01*
X153674420Y-116717116D01*
X153432496Y-116623927D01*
X153304622Y-116607167D01*
X153048533Y-116682730D01*
X152832519Y-116873837D01*
X152708529Y-117127115D01*
X152696333Y-117232130D01*
X152728300Y-117468196D01*
G36*
X152555924Y-123026240D02*
X152846744Y-123008125D01*
X152979257Y-122924379D01*
X153122452Y-122835638D01*
X153354219Y-122777160D01*
X153416000Y-122770639D01*
X153632722Y-122742416D01*
X153722634Y-122681830D01*
X153728236Y-122559472D01*
X153727611Y-122555000D01*
X153681905Y-122428632D01*
X153559733Y-122374309D01*
X153371985Y-122364500D01*
X153100911Y-122327079D01*
X152968999Y-122231527D01*
X152844481Y-122139038D01*
X152599447Y-122123039D01*
X152562625Y-122125694D01*
X152230667Y-122152834D01*
X152230667Y-122999500D01*
X152555924Y-123026240D01*
X152555924Y-123026240D01*
G37*
X152555924Y-123026240D02*
X152846744Y-123008125D01*
X152979257Y-122924379D01*
X153122452Y-122835638D01*
X153354219Y-122777160D01*
X153416000Y-122770639D01*
X153632722Y-122742416D01*
X153722634Y-122681830D01*
X153728236Y-122559472D01*
X153727611Y-122555000D01*
X153681905Y-122428632D01*
X153559733Y-122374309D01*
X153371985Y-122364500D01*
X153100911Y-122327079D01*
X152968999Y-122231527D01*
X152844481Y-122139038D01*
X152599447Y-122123039D01*
X152562625Y-122125694D01*
X152230667Y-122152834D01*
X152230667Y-122999500D01*
X152555924Y-123026240D01*
G36*
X151750960Y-122715272D02*
X151884053Y-122775042D01*
X151911938Y-122771952D01*
X152046995Y-122684571D01*
X152086290Y-122541094D01*
X152016855Y-122416324D01*
X151977233Y-122395335D01*
X151811790Y-122394359D01*
X151748067Y-122432234D01*
X151693732Y-122576335D01*
X151750960Y-122715272D01*
X151750960Y-122715272D01*
G37*
X151750960Y-122715272D02*
X151884053Y-122775042D01*
X151911938Y-122771952D01*
X152046995Y-122684571D01*
X152086290Y-122541094D01*
X152016855Y-122416324D01*
X151977233Y-122395335D01*
X151811790Y-122394359D01*
X151748067Y-122432234D01*
X151693732Y-122576335D01*
X151750960Y-122715272D01*
G36*
X151932984Y-126938991D02*
X152117782Y-127190167D01*
X152410938Y-127359954D01*
X152438442Y-127368671D01*
X152805062Y-127405395D01*
X153133235Y-127308147D01*
X153392502Y-127103469D01*
X153552405Y-126817908D01*
X153582486Y-126478008D01*
X153565800Y-126386167D01*
X153433495Y-126120245D01*
X153211485Y-125932335D01*
X153114183Y-125894534D01*
X152985201Y-125911872D01*
X152949427Y-126026969D01*
X153006333Y-126196560D01*
X153119667Y-126343834D01*
X153243974Y-126495466D01*
X153289000Y-126597834D01*
X153234351Y-126714636D01*
X153119667Y-126851834D01*
X152899248Y-126985586D01*
X152646754Y-127018147D01*
X152411477Y-126960329D01*
X152242706Y-126822943D01*
X152188333Y-126647555D01*
X152227915Y-126477817D01*
X152318962Y-126339309D01*
X152419927Y-126285216D01*
X152457698Y-126302754D01*
X152537879Y-126280654D01*
X152642544Y-126187159D01*
X152722760Y-126026009D01*
X152666309Y-125912696D01*
X152504688Y-125875189D01*
X152334176Y-125913336D01*
X152057139Y-126093599D01*
X151899822Y-126351060D01*
X151859384Y-126646073D01*
X151932984Y-126938991D01*
X151932984Y-126938991D01*
G37*
X151932984Y-126938991D02*
X152117782Y-127190167D01*
X152410938Y-127359954D01*
X152438442Y-127368671D01*
X152805062Y-127405395D01*
X153133235Y-127308147D01*
X153392502Y-127103469D01*
X153552405Y-126817908D01*
X153582486Y-126478008D01*
X153565800Y-126386167D01*
X153433495Y-126120245D01*
X153211485Y-125932335D01*
X153114183Y-125894534D01*
X152985201Y-125911872D01*
X152949427Y-126026969D01*
X153006333Y-126196560D01*
X153119667Y-126343834D01*
X153243974Y-126495466D01*
X153289000Y-126597834D01*
X153234351Y-126714636D01*
X153119667Y-126851834D01*
X152899248Y-126985586D01*
X152646754Y-127018147D01*
X152411477Y-126960329D01*
X152242706Y-126822943D01*
X152188333Y-126647555D01*
X152227915Y-126477817D01*
X152318962Y-126339309D01*
X152419927Y-126285216D01*
X152457698Y-126302754D01*
X152537879Y-126280654D01*
X152642544Y-126187159D01*
X152722760Y-126026009D01*
X152666309Y-125912696D01*
X152504688Y-125875189D01*
X152334176Y-125913336D01*
X152057139Y-126093599D01*
X151899822Y-126351060D01*
X151859384Y-126646073D01*
X151932984Y-126938991D01*
M02*
